SourceSansPro-Regular-kernagic.ufo
<glyph name="exclam" format="1">
  <advance width="298"></advance>
  <unicode hex="0021"></unicode>
  <outline>
    <contour>
      <point x="121" y="198" type="line"></point>
      <point x="178" y="198" type="line"></point>
      <point x="189" y="576" type="line"></point>
      <point x="191" y="670" type="line"></point>
      <point x="108" y="670" type="line"></point>
      <point x="110" y="576" type="line"></point>
    </contour>
    <contour>
      <point x="90" y="50" type="curve" smooth="yes"></point>
      <point x="90" y="14"></point>
      <point x="117" y="-12"></point>
      <point x="150" y="-12" type="curve" smooth="yes"></point>
      <point x="182" y="-12"></point>
      <point x="209" y="14"></point>
      <point x="209" y="50" type="curve" smooth="yes"></point>
      <point x="209" y="88"></point>
      <point x="182" y="114"></point>
      <point x="150" y="114" type="curve" smooth="yes"></point>
      <point x="117" y="114"></point>
      <point x="90" y="88"></point>
    </contour>
  </outline>
</glyph>
<glyph name="quotedbl" format="1">
  <advance width="422"></advance>
  <unicode hex="0022"></unicode>
  <outline>
    <contour>
      <point x="95" y="431" type="line"></point>
      <point x="145" y="431" type="line"></point>
      <point x="161" y="598" type="line"></point>
      <point x="164" y="690" type="line"></point>
      <point x="76" y="690" type="line"></point>
      <point x="79" y="598" type="line"></point>
    </contour>
    <contour>
      <point x="271" y="431" type="line"></point>
      <point x="322" y="431" type="line"></point>
      <point x="338" y="598" type="line"></point>
      <point x="340" y="690" type="line"></point>
      <point x="253" y="690" type="line"></point>
      <point x="255" y="598" type="line"></point>
    </contour>
  </outline>
</glyph>
<glyph name="numbersign" format="1">
  <advance width="472"></advance>
  <unicode hex="0023"></unicode>
  <outline>
    <contour>
      <point x="82" y="0" type="line"></point>
      <point x="136" y="0" type="line"></point>
      <point x="161" y="204" type="line"></point>
      <point x="293" y="204" type="line"></point>
      <point x="269" y="0" type="line"></point>
      <point x="322" y="0" type="line"></point>
      <point x="347" y="204" type="line"></point>
      <point x="439" y="204" type="line"></point>
      <point x="439" y="261" type="line"></point>
      <point x="354" y="261" type="line"></point>
      <point x="372" y="409" type="line"></point>
      <point x="459" y="409" type="line"></point>
      <point x="459" y="467" type="line"></point>
      <point x="378" y="467" type="line"></point>
      <point x="402" y="650" type="line"></point>
      <point x="349" y="650" type="line"></point>
      <point x="325" y="467" type="line"></point>
      <point x="192" y="467" type="line"></point>
      <point x="215" y="650" type="line"></point>
      <point x="162" y="650" type="line"></point>
      <point x="139" y="467" type="line"></point>
      <point x="47" y="467" type="line"></point>
      <point x="47" y="409" type="line"></point>
      <point x="132" y="409" type="line"></point>
      <point x="114" y="261" type="line"></point>
      <point x="27" y="261" type="line"></point>
      <point x="27" y="204" type="line"></point>
      <point x="107" y="204" type="line"></point>
    </contour>
    <contour>
      <point x="168" y="261" type="line"></point>
      <point x="186" y="409" type="line"></point>
      <point x="318" y="409" type="line"></point>
      <point x="300" y="261" type="line"></point>
    </contour>
  </outline>
</glyph>
<glyph name="dollar" format="1">
  <advance width="497"></advance>
  <unicode hex="0024"></unicode>
  <outline>
    <contour>
      <point x="419" y="573" type="line"></point>
      <point x="383" y="611"></point>
      <point x="341" y="642"></point>
      <point x="277" y="649" type="curve"></point>
      <point x="277" y="748" type="line"></point>
      <point x="217" y="748" type="line"></point>
      <point x="217" y="648" type="line"></point>
      <point x="130" y="634"></point>
      <point x="72" y="570"></point>
      <point x="72" y="481" type="curve" smooth="yes"></point>
      <point x="72" y="286"></point>
      <point x="351" y="321"></point>
      <point x="351" y="159" type="curve" smooth="yes"></point>
      <point x="351" y="97"></point>
      <point x="314" y="56"></point>
      <point x="240" y="56" type="curve" smooth="yes"></point>
      <point x="179" y="56"></point>
      <point x="128" y="86"></point>
      <point x="85" y="123" type="curve"></point>
      <point x="47" y="66" type="line"></point>
      <point x="89" y="27"></point>
      <point x="153" y="-5"></point>
      <point x="217" y="-11" type="curve"></point>
      <point x="217" y="-110" type="line"></point>
      <point x="277" y="-110" type="line"></point>
      <point x="277" y="-9" type="line"></point>
      <point x="372" y="4"></point>
      <point x="432" y="70"></point>
      <point x="432" y="165" type="curve" smooth="yes"></point>
      <point x="432" y="380"></point>
      <point x="153" y="340"></point>
      <point x="153" y="485" type="curve" smooth="yes"></point>
      <point x="153" y="543"></point>
      <point x="192" y="581"></point>
      <point x="253" y="581" type="curve" smooth="yes"></point>
      <point x="307" y="581"></point>
      <point x="338" y="560"></point>
      <point x="375" y="524" type="curve"></point>
    </contour>
  </outline>
</glyph>
<glyph name="percent" format="1">
  <advance width="845"></advance>
  <unicode hex="0025"></unicode>
  <outline>
    <contour>
      <point x="185" y="254" type="curve" smooth="yes"></point>
      <point x="274" y="254"></point>
      <point x="334" y="330"></point>
      <point x="334" y="462" type="curve" smooth="yes"></point>
      <point x="334" y="594"></point>
      <point x="274" y="668"></point>
      <point x="185" y="668" type="curve" smooth="yes"></point>
      <point x="95" y="668"></point>
      <point x="36" y="594"></point>
      <point x="36" y="462" type="curve" smooth="yes"></point>
      <point x="36" y="330"></point>
      <point x="95" y="254"></point>
    </contour>
    <contour>
      <point x="185" y="305" type="curve" smooth="yes"></point>
      <point x="133" y="305"></point>
      <point x="98" y="358"></point>
      <point x="98" y="462" type="curve" smooth="yes"></point>
      <point x="98" y="567"></point>
      <point x="133" y="617"></point>
      <point x="185" y="617" type="curve" smooth="yes"></point>
      <point x="236" y="617"></point>
      <point x="271" y="567"></point>
      <point x="271" y="462" type="curve" smooth="yes"></point>
      <point x="271" y="358"></point>
      <point x="236" y="305"></point>
    </contour>
    <contour>
      <point x="259" y="-12" type="line"></point>
      <point x="621" y="668" type="line"></point>
      <point x="566" y="668" type="line"></point>
      <point x="204" y="-12" type="line"></point>
    </contour>
    <contour>
      <point x="642" y="-12" type="curve" smooth="yes"></point>
      <point x="731" y="-12"></point>
      <point x="791" y="63"></point>
      <point x="791" y="196" type="curve" smooth="yes"></point>
      <point x="791" y="327"></point>
      <point x="731" y="402"></point>
      <point x="642" y="402" type="curve" smooth="yes"></point>
      <point x="552" y="402"></point>
      <point x="493" y="327"></point>
      <point x="493" y="196" type="curve" smooth="yes"></point>
      <point x="493" y="63"></point>
      <point x="552" y="-12"></point>
    </contour>
    <contour>
      <point x="642" y="39" type="curve" smooth="yes"></point>
      <point x="591" y="39"></point>
      <point x="555" y="92"></point>
      <point x="555" y="196" type="curve" smooth="yes"></point>
      <point x="555" y="300"></point>
      <point x="591" y="351"></point>
      <point x="642" y="351" type="curve" smooth="yes"></point>
      <point x="693" y="351"></point>
      <point x="728" y="300"></point>
      <point x="728" y="196" type="curve" smooth="yes"></point>
      <point x="728" y="92"></point>
      <point x="693" y="39"></point>
    </contour>
  </outline>
</glyph>
<glyph name="ampersand" format="1">
  <advance width="622"></advance>
  <unicode hex="0026"></unicode>
  <outline>
    <contour>
      <point x="107" y="175" type="curve" smooth="yes"></point>
      <point x="107" y="226"></point>
      <point x="143" y="265"></point>
      <point x="189" y="302" type="curve"></point>
      <point x="235" y="232"></point>
      <point x="297" y="163"></point>
      <point x="361" y="107" type="curve"></point>
      <point x="323" y="74"></point>
      <point x="281" y="54"></point>
      <point x="236" y="54" type="curve" smooth="yes"></point>
      <point x="164" y="54"></point>
      <point x="107" y="102"></point>
    </contour>
    <contour>
      <point x="184" y="514" type="curve" smooth="yes"></point>
      <point x="184" y="568"></point>
      <point x="216" y="609"></point>
      <point x="265" y="609" type="curve" smooth="yes"></point>
      <point x="309" y="609"></point>
      <point x="327" y="575"></point>
      <point x="327" y="537" type="curve" smooth="yes"></point>
      <point x="327" y="479"></point>
      <point x="275" y="439"></point>
      <point x="215" y="399" type="curve"></point>
      <point x="196" y="439"></point>
      <point x="184" y="478"></point>
    </contour>
    <contour>
      <point x="589" y="56" type="line"></point>
      <point x="553" y="66"></point>
      <point x="511" y="88"></point>
      <point x="466" y="119" type="curve"></point>
      <point x="518" y="188"></point>
      <point x="555" y="268"></point>
      <point x="581" y="354" type="curve"></point>
      <point x="504" y="354" type="line"></point>
      <point x="484" y="279"></point>
      <point x="452" y="214"></point>
      <point x="412" y="160" type="curve"></point>
      <point x="350" y="212"></point>
      <point x="289" y="277"></point>
      <point x="246" y="344" type="curve"></point>
      <point x="319" y="397"></point>
      <point x="394" y="452"></point>
      <point x="394" y="538" type="curve" smooth="yes"></point>
      <point x="394" y="615"></point>
      <point x="346" y="668"></point>
      <point x="265" y="668" type="curve" smooth="yes"></point>
      <point x="174" y="668"></point>
      <point x="113" y="600"></point>
      <point x="113" y="513" type="curve" smooth="yes"></point>
      <point x="113" y="465"></point>
      <point x="129" y="413"></point>
      <point x="156" y="359" type="curve"></point>
      <point x="89" y="313"></point>
      <point x="27" y="258"></point>
      <point x="27" y="170" type="curve" smooth="yes"></point>
      <point x="27" y="64"></point>
      <point x="108" y="-12"></point>
      <point x="227" y="-12" type="curve" smooth="yes"></point>
      <point x="304" y="-12"></point>
      <point x="366" y="18"></point>
      <point x="416" y="63" type="curve"></point>
      <point x="469" y="26"></point>
      <point x="521" y="1"></point>
      <point x="567" y="-12" type="curve"></point>
    </contour>
  </outline>
</glyph>
<glyph name="quotesingle" format="1">
  <advance width="298"></advance>
  <unicode hex="0027"></unicode>
  <outline>
    <contour>
      <point x="118" y="431" type="line"></point>
      <point x="168" y="431" type="line"></point>
      <point x="184" y="598" type="line"></point>
      <point x="187" y="690" type="line"></point>
      <point x="99" y="690" type="line"></point>
      <point x="102" y="598" type="line"></point>
    </contour>
  </outline>
</glyph>
<glyph name="parenleft" format="1">
  <advance width="323"></advance>
  <unicode hex="0028"></unicode>
  <outline>
    <contour>
      <point x="219" y="-176" type="curve"></point>
      <point x="270" y="-152" type="line"></point>
      <point x="193" y="-25"></point>
      <point x="155" y="126"></point>
      <point x="155" y="278" type="curve" smooth="yes"></point>
      <point x="155" y="430"></point>
      <point x="193" y="581"></point>
      <point x="270" y="708" type="curve"></point>
      <point x="219" y="732" type="line"></point>
      <point x="136" y="598"></point>
      <point x="87" y="454"></point>
      <point x="87" y="278" type="curve" smooth="yes"></point>
      <point x="87" y="102"></point>
      <point x="136" y="-42"></point>
    </contour>
  </outline>
</glyph>
<glyph name="parenright" format="1">
  <advance width="398"></advance>
  <unicode hex="0029"></unicode>
  <outline>
    <contour>
      <point x="121" y="-152" type="curve"></point>
      <point x="172" y="-176" type="line"></point>
      <point x="255" y="-42"></point>
      <point x="304" y="102"></point>
      <point x="304" y="278" type="curve" smooth="yes"></point>
      <point x="304" y="454"></point>
      <point x="255" y="598"></point>
      <point x="172" y="732" type="curve"></point>
      <point x="121" y="708" type="line"></point>
      <point x="198" y="581"></point>
      <point x="236" y="430"></point>
      <point x="236" y="278" type="curve" smooth="yes"></point>
      <point x="236" y="126"></point>
      <point x="198" y="-25"></point>
    </contour>
  </outline>
</glyph>
<glyph name="asterisk" format="1">
  <advance width="398"></advance>
  <unicode hex="002A"></unicode>
  <outline>
    <contour>
      <point x="127" y="420" type="line"></point>
      <point x="198" y="506" type="line"></point>
      <point x="269" y="420" type="line"></point>
      <point x="308" y="449" type="line"></point>
      <point x="252" y="543" type="line"></point>
      <point x="349" y="583" type="line"></point>
      <point x="334" y="629" type="line"></point>
      <point x="231" y="605" type="line"></point>
      <point x="222" y="712" type="line"></point>
      <point x="173" y="712" type="line"></point>
      <point x="164" y="604" type="line"></point>
      <point x="62" y="629" type="line"></point>
      <point x="47" y="583" type="line"></point>
      <point x="144" y="543" type="line"></point>
      <point x="87" y="449" type="line"></point>
    </contour>
  </outline>
</glyph>
<glyph name="plus" format="1">
  <advance width="547"></advance>
  <unicode hex="002B"></unicode>
  <outline>
    <contour>
      <point x="238" y="104" type="line"></point>
      <point x="303" y="104" type="line"></point>
      <point x="303" y="299" type="line"></point>
      <point x="485" y="299" type="line"></point>
      <point x="485" y="361" type="line"></point>
      <point x="303" y="361" type="line"></point>
      <point x="303" y="556" type="line"></point>
      <point x="238" y="556" type="line"></point>
      <point x="238" y="361" type="line"></point>
      <point x="56" y="361" type="line"></point>
      <point x="56" y="299" type="line"></point>
      <point x="238" y="299" type="line"></point>
    </contour>
  </outline>
</glyph>
<glyph name="comma" format="1">
  <advance width="323"></advance>
  <unicode hex="002C"></unicode>
  <outline>
    <contour>
      <point x="104" y="-170" type="line"></point>
      <point x="185" y="-136"></point>
      <point x="235" y="-69"></point>
      <point x="235" y="17" type="curve" smooth="yes"></point>
      <point x="235" y="77"></point>
      <point x="209" y="114"></point>
      <point x="166" y="114" type="curve" smooth="yes"></point>
      <point x="133" y="114"></point>
      <point x="105" y="92"></point>
      <point x="105" y="56" type="curve" smooth="yes"></point>
      <point x="105" y="19"></point>
      <point x="132" y="-1"></point>
      <point x="164" y="-1" type="curve" smooth="yes"></point>
      <point x="167" y="-1"></point>
      <point x="171" y="-1"></point>
      <point x="174" y="0" type="curve"></point>
      <point x="174" y="-54"></point>
      <point x="140" y="-97"></point>
      <point x="84" y="-122" type="curve"></point>
    </contour>
  </outline>
</glyph>
<glyph name="slash" format="1">
  <advance width="398"></advance>
  <unicode hex="002F"></unicode>
  <outline>
    <contour>
      <point x="36" y="-160" type="line"></point>
      <point x="96" y="-160" type="line"></point>
      <point x="363" y="710" type="line"></point>
      <point x="303" y="710" type="line"></point>
    </contour>
  </outline>
</glyph>
<glyph name="zero" format="1">
  <advance width="547"></advance>
  <unicode hex="0030"></unicode>
  <outline>
    <contour>
      <point x="269" y="-12" type="curve" smooth="yes"></point>
      <point x="396" y="-12"></point>
      <point x="473" y="107"></point>
      <point x="473" y="321" type="curve" smooth="yes"></point>
      <point x="473" y="535"></point>
      <point x="396" y="650"></point>
      <point x="269" y="650" type="curve" smooth="yes"></point>
      <point x="141" y="650"></point>
      <point x="64" y="535"></point>
      <point x="64" y="321" type="curve" smooth="yes"></point>
      <point x="64" y="107"></point>
      <point x="141" y="-12"></point>
    </contour>
    <contour>
      <point x="269" y="54" type="curve" smooth="yes"></point>
      <point x="194" y="54"></point>
      <point x="144" y="134"></point>
      <point x="144" y="321" type="curve" smooth="yes"></point>
      <point x="144" y="508"></point>
      <point x="194" y="584"></point>
      <point x="269" y="584" type="curve" smooth="yes"></point>
      <point x="343" y="584"></point>
      <point x="393" y="508"></point>
      <point x="393" y="321" type="curve" smooth="yes"></point>
      <point x="393" y="134"></point>
      <point x="343" y="54"></point>
    </contour>
  </outline>
</glyph>
<glyph name="one" format="1">
  <advance width="497"></advance>
  <unicode hex="0031"></unicode>
  <outline>
    <contour>
      <point x="67" y="0" type="line"></point>
      <point x="427" y="0" type="line"></point>
      <point x="427" y="68" type="line"></point>
      <point x="295" y="68" type="line"></point>
      <point x="295" y="638" type="line"></point>
      <point x="232" y="638" type="line"></point>
      <point x="197" y="617"></point>
      <point x="155" y="601"></point>
      <point x="97" y="591" type="curve"></point>
      <point x="97" y="538" type="line"></point>
      <point x="213" y="538" type="line"></point>
      <point x="213" y="68" type="line"></point>
      <point x="67" y="68" type="line"></point>
    </contour>
  </outline>
</glyph>
<glyph name="two" format="1">
  <advance width="497"></advance>
  <unicode hex="0032"></unicode>
  <outline>
    <contour>
      <point x="43" y="0" type="line"></point>
      <point x="455" y="0" type="line"></point>
      <point x="455" y="71" type="line"></point>
      <point x="270" y="71" type="line" smooth="yes"></point>
      <point x="237" y="71"></point>
      <point x="198" y="68"></point>
      <point x="163" y="65" type="curve"></point>
      <point x="314" y="223"></point>
      <point x="423" y="342"></point>
      <point x="423" y="462" type="curve" smooth="yes"></point>
      <point x="423" y="575"></point>
      <point x="350" y="650"></point>
      <point x="232" y="650" type="curve" smooth="yes"></point>
      <point x="149" y="650"></point>
      <point x="92" y="611"></point>
      <point x="39" y="553" type="curve"></point>
      <point x="86" y="506" type="line"></point>
      <point x="123" y="549"></point>
      <point x="169" y="583"></point>
      <point x="222" y="583" type="curve" smooth="yes"></point>
      <point x="303" y="583"></point>
      <point x="343" y="531"></point>
      <point x="343" y="458" type="curve" smooth="yes"></point>
      <point x="343" y="355"></point>
      <point x="235" y="240"></point>
      <point x="43" y="49" type="curve"></point>
    </contour>
  </outline>
</glyph>
<glyph name="four" format="1">
  <advance width="497"></advance>
  <unicode hex="0034"></unicode>
  <outline>
    <contour>
      <point x="123" y="242" type="line"></point>
      <point x="272" y="460" type="line"></point>
      <point x="290" y="491"></point>
      <point x="308" y="519"></point>
      <point x="324" y="550" type="curve"></point>
      <point x="328" y="550" type="line"></point>
      <point x="326" y="516"></point>
      <point x="323" y="461"></point>
      <point x="323" y="427" type="curve" smooth="yes"></point>
      <point x="323" y="242" type="line"></point>
    </contour>
    <contour>
      <point x="488" y="242" type="line"></point>
      <point x="401" y="242" type="line"></point>
      <point x="401" y="638" type="line"></point>
      <point x="309" y="638" type="line"></point>
      <point x="36" y="230" type="line"></point>
      <point x="36" y="176" type="line"></point>
      <point x="323" y="176" type="line"></point>
      <point x="323" y="0" type="line"></point>
      <point x="401" y="0" type="line"></point>
      <point x="401" y="176" type="line"></point>
      <point x="488" y="176" type="line"></point>
    </contour>
  </outline>
</glyph>
<glyph name="seven" format="1">
  <advance width="547"></advance>
  <unicode hex="0037"></unicode>
  <outline>
    <contour>
      <point x="254" y="0" type="curve"></point>
      <point x="339" y="0" type="line"></point>
      <point x="350" y="249"></point>
      <point x="381" y="394"></point>
      <point x="532" y="587" type="curve"></point>
      <point x="532" y="638" type="line"></point>
      <point x="121" y="638" type="line"></point>
      <point x="121" y="567" type="line"></point>
      <point x="439" y="567" type="line"></point>
      <point x="313" y="392"></point>
      <point x="265" y="240"></point>
    </contour>
  </outline>
</glyph>
<glyph name="nine" format="1">
  <advance width="522"></advance>
  <unicode hex="0039"></unicode>
  <outline>
    <contour>
      <point x="254" y="310" type="curve" smooth="yes"></point>
      <point x="175" y="310"></point>
      <point x="136" y="362"></point>
      <point x="136" y="445" type="curve" smooth="yes"></point>
      <point x="136" y="529"></point>
      <point x="185" y="585"></point>
      <point x="247" y="585" type="curve" smooth="yes"></point>
      <point x="328" y="585"></point>
      <point x="377" y="519"></point>
      <point x="388" y="395" type="curve"></point>
      <point x="345" y="334"></point>
      <point x="295" y="310"></point>
    </contour>
    <contour>
      <point x="70" y="55" type="line"></point>
      <point x="105" y="17"></point>
      <point x="156" y="-12"></point>
      <point x="224" y="-12" type="curve" smooth="yes"></point>
      <point x="351" y="-12"></point>
      <point x="467" y="87"></point>
      <point x="467" y="343" type="curve" smooth="yes"></point>
      <point x="467" y="548"></point>
      <point x="373" y="650"></point>
      <point x="247" y="650" type="curve" smooth="yes"></point>
      <point x="145" y="650"></point>
      <point x="59" y="567"></point>
      <point x="59" y="445" type="curve" smooth="yes"></point>
      <point x="59" y="314"></point>
      <point x="130" y="248"></point>
      <point x="240" y="248" type="curve" smooth="yes"></point>
      <point x="293" y="248"></point>
      <point x="350" y="279"></point>
      <point x="390" y="330" type="curve"></point>
      <point x="387" y="126"></point>
      <point x="311" y="56"></point>
      <point x="221" y="56" type="curve" smooth="yes"></point>
      <point x="181" y="56"></point>
      <point x="142" y="76"></point>
      <point x="116" y="107" type="curve"></point>
    </contour>
  </outline>
</glyph>
<glyph name="colon" format="1">
  <advance width="323"></advance>
  <unicode hex="003A"></unicode>
  <outline>
    <contour>
      <point x="99" y="411" type="curve" smooth="yes"></point>
      <point x="99" y="374"></point>
      <point x="126" y="349"></point>
      <point x="159" y="349" type="curve" smooth="yes"></point>
      <point x="191" y="349"></point>
      <point x="218" y="374"></point>
      <point x="218" y="411" type="curve" smooth="yes"></point>
      <point x="218" y="449"></point>
      <point x="191" y="474"></point>
      <point x="159" y="474" type="curve" smooth="yes"></point>
      <point x="126" y="474"></point>
      <point x="99" y="449"></point>
    </contour>
    <contour>
      <point x="99" y="50" type="curve" smooth="yes"></point>
      <point x="99" y="14"></point>
      <point x="126" y="-12"></point>
      <point x="159" y="-12" type="curve" smooth="yes"></point>
      <point x="191" y="-12"></point>
      <point x="218" y="14"></point>
      <point x="218" y="50" type="curve" smooth="yes"></point>
      <point x="218" y="88"></point>
      <point x="191" y="114"></point>
      <point x="159" y="114" type="curve" smooth="yes"></point>
      <point x="126" y="114"></point>
      <point x="99" y="88"></point>
    </contour>
  </outline>
</glyph>
<glyph name="less" format="1">
  <advance width="522"></advance>
  <unicode hex="003C"></unicode>
  <outline>
    <contour>
      <point x="44" y="299" type="line"></point>
      <point x="473" y="131" type="line"></point>
      <point x="473" y="202" type="line"></point>
      <point x="262" y="280" type="line"></point>
      <point x="128" y="330" type="line"></point>
      <point x="128" y="334" type="line"></point>
      <point x="262" y="384" type="line"></point>
      <point x="473" y="462" type="line"></point>
      <point x="473" y="533" type="line"></point>
      <point x="44" y="365" type="line"></point>
    </contour>
  </outline>
</glyph>
<glyph name="equal" format="1">
  <advance width="547"></advance>
  <unicode hex="003D"></unicode>
  <outline>
    <contour>
      <point x="56" y="406" type="line"></point>
      <point x="485" y="406" type="line"></point>
      <point x="485" y="468" type="line"></point>
      <point x="56" y="468" type="line"></point>
    </contour>
    <contour>
      <point x="56" y="192" type="line"></point>
      <point x="485" y="192" type="line"></point>
      <point x="485" y="254" type="line"></point>
      <point x="56" y="254" type="line"></point>
    </contour>
  </outline>
</glyph>
<glyph name="greater" format="1">
  <advance width="522"></advance>
  <unicode hex="003E"></unicode>
  <outline>
    <contour>
      <point x="476" y="365" type="line"></point>
      <point x="47" y="533" type="line"></point>
      <point x="47" y="462" type="line"></point>
      <point x="258" y="384" type="line"></point>
      <point x="392" y="334" type="line"></point>
      <point x="392" y="330" type="line"></point>
      <point x="258" y="280" type="line"></point>
      <point x="47" y="202" type="line"></point>
      <point x="47" y="131" type="line"></point>
      <point x="476" y="299" type="line"></point>
    </contour>
  </outline>
</glyph>
<glyph name="question" format="1">
  <advance width="422"></advance>
  <unicode hex="003F"></unicode>
  <outline>
    <contour>
      <point x="140" y="198" type="curve"></point>
      <point x="212" y="198" type="line"></point>
      <point x="196" y="338"></point>
      <point x="357" y="391"></point>
      <point x="357" y="522" type="curve" smooth="yes"></point>
      <point x="357" y="621"></point>
      <point x="289" y="682"></point>
      <point x="186" y="682" type="curve" smooth="yes"></point>
      <point x="115" y="682"></point>
      <point x="60" y="647"></point>
      <point x="18" y="599" type="curve"></point>
      <point x="65" y="556" type="line"></point>
      <point x="96" y="592"></point>
      <point x="136" y="614"></point>
      <point x="180" y="614" type="curve" smooth="yes"></point>
      <point x="244" y="614"></point>
      <point x="277" y="570"></point>
      <point x="277" y="517" type="curve" smooth="yes"></point>
      <point x="277" y="411"></point>
      <point x="118" y="354"></point>
    </contour>
    <contour>
      <point x="119" y="50" type="curve" smooth="yes"></point>
      <point x="119" y="14"></point>
      <point x="145" y="-12"></point>
      <point x="178" y="-12" type="curve" smooth="yes"></point>
      <point x="211" y="-12"></point>
      <point x="238" y="14"></point>
      <point x="238" y="50" type="curve" smooth="yes"></point>
      <point x="238" y="88"></point>
      <point x="211" y="114"></point>
      <point x="178" y="114" type="curve" smooth="yes"></point>
      <point x="145" y="114"></point>
      <point x="119" y="88"></point>
    </contour>
  </outline>
</glyph>
<glyph name="at" format="1">
  <advance width="870"></advance>
  <unicode hex="0040"></unicode>
  <outline>
    <contour>
      <point x="61" y="203" type="curve" smooth="yes"></point>
      <point x="61" y="-30"></point>
      <point x="217" y="-155"></point>
      <point x="413" y="-155" type="curve" smooth="yes"></point>
      <point x="482" y="-155"></point>
      <point x="545" y="-139"></point>
      <point x="603" y="-104" type="curve"></point>
      <point x="581" y="-55" type="line"></point>
      <point x="536" y="-81"></point>
      <point x="480" y="-100"></point>
      <point x="419" y="-100" type="curve" smooth="yes"></point>
      <point x="249" y="-100"></point>
      <point x="121" y="11"></point>
      <point x="121" y="206" type="curve" smooth="yes"></point>
      <point x="121" y="440"></point>
      <point x="293" y="591"></point>
      <point x="471" y="591" type="curve" smooth="yes"></point>
      <point x="653" y="591"></point>
      <point x="748" y="473"></point>
      <point x="748" y="312" type="curve" smooth="yes"></point>
      <point x="748" y="182"></point>
      <point x="677" y="105"></point>
      <point x="614" y="105" type="curve" smooth="yes"></point>
      <point x="559" y="105"></point>
      <point x="540" y="143"></point>
      <point x="560" y="222" type="curve"></point>
      <point x="599" y="422" type="line"></point>
      <point x="544" y="422" type="line"></point>
      <point x="533" y="382" type="line"></point>
      <point x="531" y="382" type="line"></point>
      <point x="513" y="415"></point>
      <point x="485" y="430"></point>
      <point x="451" y="430" type="curve" smooth="yes"></point>
      <point x="334" y="430"></point>
      <point x="259" y="305"></point>
      <point x="259" y="198" type="curve" smooth="yes"></point>
      <point x="259" y="107"></point>
      <point x="311" y="57"></point>
      <point x="379" y="57" type="curve" smooth="yes"></point>
      <point x="423" y="57"></point>
      <point x="468" y="86"></point>
      <point x="501" y="125" type="curve"></point>
      <point x="503" y="125" type="line"></point>
      <point x="510" y="75"></point>
      <point x="552" y="49"></point>
      <point x="606" y="49" type="curve" smooth="yes"></point>
      <point x="697" y="49"></point>
      <point x="806" y="140"></point>
      <point x="806" y="315" type="curve" smooth="yes"></point>
      <point x="806" y="512"></point>
      <point x="680" y="646"></point>
      <point x="478" y="646" type="curve" smooth="yes"></point>
      <point x="254" y="646"></point>
      <point x="61" y="471"></point>
    </contour>
    <contour>
      <point x="325" y="203" type="curve" smooth="yes"></point>
      <point x="325" y="278"></point>
      <point x="373" y="373"></point>
      <point x="452" y="373" type="curve" smooth="yes"></point>
      <point x="479" y="373"></point>
      <point x="497" y="362"></point>
      <point x="516" y="331" type="curve"></point>
      <point x="487" y="172" type="line"></point>
      <point x="453" y="131"></point>
      <point x="423" y="113"></point>
      <point x="395" y="113" type="curve" smooth="yes"></point>
      <point x="355" y="113"></point>
      <point x="325" y="139"></point>
    </contour>
  </outline>
</glyph>
<glyph name="B" format="1">
  <advance width="572"></advance>
  <unicode hex="0042"></unicode>
  <outline>
    <contour>
      <point x="70" y="0" type="line"></point>
      <point x="279" y="0" type="line" smooth="yes"></point>
      <point x="426" y="0"></point>
      <point x="528" y="63"></point>
      <point x="528" y="192" type="curve" smooth="yes"></point>
      <point x="528" y="282"></point>
      <point x="472" y="334"></point>
      <point x="376" y="349" type="curve"></point>
      <point x="376" y="353" type="line"></point>
      <point x="453" y="373"></point>
      <point x="490" y="431"></point>
      <point x="490" y="496" type="curve" smooth="yes"></point>
      <point x="490" y="611"></point>
      <point x="398" y="656"></point>
      <point x="265" y="656" type="curve" smooth="yes"></point>
      <point x="70" y="656" type="line"></point>
    </contour>
    <contour>
      <point x="153" y="376" type="line"></point>
      <point x="153" y="590" type="line"></point>
      <point x="254" y="590" type="line" smooth="yes"></point>
      <point x="356" y="590"></point>
      <point x="408" y="560"></point>
      <point x="408" y="489" type="curve" smooth="yes"></point>
      <point x="408" y="416"></point>
      <point x="362" y="376"></point>
      <point x="250" y="376" type="curve" smooth="yes"></point>
    </contour>
    <contour>
      <point x="153" y="66" type="line"></point>
      <point x="153" y="314" type="line"></point>
      <point x="267" y="314" type="line" smooth="yes"></point>
      <point x="382" y="314"></point>
      <point x="446" y="277"></point>
      <point x="446" y="196" type="curve" smooth="yes"></point>
      <point x="446" y="107"></point>
      <point x="380" y="66"></point>
      <point x="267" y="66" type="curve" smooth="yes"></point>
    </contour>
  </outline>
</glyph>
<glyph name="D" format="1">
  <advance width="622"></advance>
  <unicode hex="0044"></unicode>
  <outline>
    <contour>
      <point x="76" y="0" type="line"></point>
      <point x="244" y="0" type="line" smooth="yes"></point>
      <point x="442" y="0"></point>
      <point x="550" y="122"></point>
      <point x="550" y="331" type="curve" smooth="yes"></point>
      <point x="550" y="539"></point>
      <point x="442" y="656"></point>
      <point x="240" y="656" type="curve" smooth="yes"></point>
      <point x="76" y="656" type="line"></point>
    </contour>
    <contour>
      <point x="159" y="68" type="line"></point>
      <point x="159" y="588" type="line"></point>
      <point x="234" y="588" type="line" smooth="yes"></point>
      <point x="387" y="588"></point>
      <point x="464" y="496"></point>
      <point x="464" y="331" type="curve" smooth="yes"></point>
      <point x="464" y="165"></point>
      <point x="387" y="68"></point>
      <point x="234" y="68" type="curve" smooth="yes"></point>
    </contour>
  </outline>
</glyph>
<glyph name="F" format="1">
  <advance width="497"></advance>
  <unicode hex="0046"></unicode>
  <outline>
    <contour>
      <point x="76" y="0" type="line"></point>
      <point x="159" y="0" type="line"></point>
      <point x="159" y="294" type="line"></point>
      <point x="409" y="294" type="line"></point>
      <point x="409" y="364" type="line"></point>
      <point x="159" y="364" type="line"></point>
      <point x="159" y="586" type="line"></point>
      <point x="454" y="586" type="line"></point>
      <point x="454" y="656" type="line"></point>
      <point x="76" y="656" type="line"></point>
    </contour>
  </outline>
</glyph>
<glyph name="H" format="1">
  <advance width="612"/>
  <unicode hex="0048"/>
  <outline>
    <contour>
      <point x="73" y="0" type="line"/>
      <point x="156" y="0" type="line"/>
      <point x="156" y="309" type="line"/>
      <point x="461" y="309" type="line"/>
      <point x="461" y="0" type="line"/>
      <point x="545" y="0" type="line"/>
      <point x="545" y="656" type="line"/>
      <point x="461" y="656" type="line"/>
      <point x="461" y="381" type="line"/>
      <point x="156" y="381" type="line"/>
      <point x="156" y="656" type="line"/>
      <point x="73" y="656" type="line"/>
    </contour>
  </outline>
</glyph>
<glyph name="I" format="1">
  <advance width="298"></advance>
  <unicode hex="0049"></unicode>
  <outline>
    <contour>
      <point x="107" y="0" type="line"></point>
      <point x="190" y="0" type="line"></point>
      <point x="190" y="656" type="line"></point>
      <point x="107" y="656" type="line"></point>
    </contour>
  </outline>
</glyph>
<glyph name="J" format="1">
  <advance width="472"></advance>
  <unicode hex="004A"></unicode>
  <outline>
    <contour>
      <point x="26" y="93" type="line"></point>
      <point x="64" y="24"></point>
      <point x="124" y="-12"></point>
      <point x="207" y="-12" type="curve" smooth="yes"></point>
      <point x="335" y="-12"></point>
      <point x="388" y="80"></point>
      <point x="388" y="193" type="curve" smooth="yes"></point>
      <point x="388" y="656" type="line"></point>
      <point x="304" y="656" type="line"></point>
      <point x="304" y="201" type="line" smooth="yes"></point>
      <point x="304" y="101"></point>
      <point x="269" y="61"></point>
      <point x="199" y="61" type="curve" smooth="yes"></point>
      <point x="152" y="61"></point>
      <point x="115" y="83"></point>
      <point x="86" y="135" type="curve"></point>
    </contour>
  </outline>
</glyph>
<glyph name="K" format="1">
  <advance width="547"></advance>
  <unicode hex="004B"></unicode>
  <outline>
    <contour>
      <point x="70" y="0" type="line"></point>
      <point x="153" y="0" type="line"></point>
      <point x="153" y="208" type="line"></point>
      <point x="266" y="341" type="line"></point>
      <point x="462" y="0" type="line"></point>
      <point x="555" y="0" type="line"></point>
      <point x="318" y="406" type="line"></point>
      <point x="523" y="656" type="line"></point>
      <point x="429" y="656" type="line"></point>
      <point x="156" y="327" type="line"></point>
      <point x="153" y="327" type="line"></point>
      <point x="153" y="656" type="line"></point>
      <point x="70" y="656" type="line"></point>
    </contour>
  </outline>
</glyph>
<glyph name="L" format="1">
  <advance width="472"></advance>
  <unicode hex="004C"></unicode>
  <outline>
    <contour>
      <point x="76" y="0" type="line"></point>
      <point x="446" y="0" type="line"></point>
      <point x="446" y="71" type="line"></point>
      <point x="159" y="71" type="line"></point>
      <point x="159" y="656" type="line"></point>
      <point x="76" y="656" type="line"></point>
    </contour>
  </outline>
</glyph>
<glyph name="M" format="1">
  <advance width="696"></advance>
  <unicode hex="004D"></unicode>
  <outline>
    <contour>
      <point x="76" y="0" type="line"></point>
      <point x="153" y="0" type="line"></point>
      <point x="153" y="361" type="line" smooth="yes"></point>
      <point x="153" y="419"></point>
      <point x="146" y="497"></point>
      <point x="142" y="555" type="curve"></point>
      <point x="146" y="555" type="line"></point>
      <point x="198" y="409" type="line"></point>
      <point x="325" y="66" type="line"></point>
      <point x="372" y="66" type="line"></point>
      <point x="498" y="409" type="line"></point>
      <point x="551" y="555" type="line"></point>
      <point x="555" y="555" type="line"></point>
      <point x="550" y="497"></point>
      <point x="544" y="419"></point>
      <point x="544" y="361" type="curve" smooth="yes"></point>
      <point x="544" y="0" type="line"></point>
      <point x="623" y="0" type="line"></point>
      <point x="623" y="656" type="line"></point>
      <point x="525" y="656" type="line"></point>
      <point x="399" y="304" type="line"></point>
      <point x="353" y="170" type="line"></point>
      <point x="349" y="170" type="line"></point>
      <point x="301" y="304" type="line"></point>
      <point x="174" y="656" type="line"></point>
      <point x="76" y="656" type="line"></point>
    </contour>
  </outline>
</glyph>
<glyph name="P" format="1">
  <advance width="572"></advance>
  <unicode hex="0050"></unicode>
  <outline>
    <contour>
      <point x="76" y="0" type="line"></point>
      <point x="159" y="0" type="line"></point>
      <point x="159" y="260" type="line"></point>
      <point x="277" y="260" type="line" smooth="yes"></point>
      <point x="421" y="260"></point>
      <point x="519" y="325"></point>
      <point x="519" y="463" type="curve" smooth="yes"></point>
      <point x="519" y="607"></point>
      <point x="422" y="656"></point>
      <point x="277" y="656" type="curve" smooth="yes"></point>
      <point x="76" y="656" type="line"></point>
    </contour>
    <contour>
      <point x="159" y="328" type="line"></point>
      <point x="159" y="589" type="line"></point>
      <point x="267" y="589" type="line" smooth="yes"></point>
      <point x="380" y="589"></point>
      <point x="436" y="558"></point>
      <point x="436" y="463" type="curve" smooth="yes"></point>
      <point x="436" y="370"></point>
      <point x="381" y="328"></point>
      <point x="267" y="328" type="curve" smooth="yes"></point>
    </contour>
  </outline>
</glyph>
<glyph name="Q" format="1">
  <advance width="671"></advance>
  <unicode hex="0051"></unicode>
  <outline>
    <contour>
      <point x="139" y="331" type="curve" smooth="yes"></point>
      <point x="139" y="494"></point>
      <point x="216" y="595"></point>
      <point x="333" y="595" type="curve" smooth="yes"></point>
      <point x="450" y="595"></point>
      <point x="527" y="494"></point>
      <point x="527" y="331" type="curve" smooth="yes"></point>
      <point x="527" y="163"></point>
      <point x="450" y="57"></point>
      <point x="333" y="57" type="curve" smooth="yes"></point>
      <point x="216" y="57"></point>
      <point x="139" y="163"></point>
    </contour>
    <contour>
      <point x="612" y="-84" type="line"></point>
      <point x="594" y="-89"></point>
      <point x="572" y="-94"></point>
      <point x="543" y="-94" type="curve" smooth="yes"></point>
      <point x="472" y="-94"></point>
      <point x="412" y="-66"></point>
      <point x="382" y="-8" type="curve"></point>
      <point x="521" y="16"></point>
      <point x="614" y="142"></point>
      <point x="614" y="331" type="curve" smooth="yes"></point>
      <point x="614" y="540"></point>
      <point x="498" y="668"></point>
      <point x="333" y="668" type="curve" smooth="yes"></point>
      <point x="168" y="668"></point>
      <point x="53" y="541"></point>
      <point x="53" y="331" type="curve" smooth="yes"></point>
      <point x="53" y="138"></point>
      <point x="149" y="11"></point>
      <point x="292" y="-9" type="curve"></point>
      <point x="330" y="-99"></point>
      <point x="413" y="-164"></point>
      <point x="534" y="-164" type="curve" smooth="yes"></point>
      <point x="573" y="-164"></point>
      <point x="608" y="-156"></point>
      <point x="628" y="-149" type="curve"></point>
    </contour>
  </outline>
</glyph>
<glyph name="T" format="1">
  <advance width="531"/>
  <unicode hex="0054"/>
  <outline>
    <contour>
      <point x="227" y="0" type="line"/>
      <point x="311" y="0" type="line"/>
      <point x="311" y="586" type="line"/>
      <point x="509" y="586" type="line"/>
      <point x="509" y="656" type="line"/>
      <point x="29" y="656" type="line"/>
      <point x="29" y="586" type="line"/>
      <point x="227" y="586" type="line"/>
    </contour>
  </outline>
</glyph>
<glyph name="U" format="1">
  <advance width="622"></advance>
  <unicode hex="0055"></unicode>
  <outline>
    <contour>
      <point x="67" y="271" type="line" smooth="yes"></point>
      <point x="67" y="60"></point>
      <point x="169" y="-12"></point>
      <point x="303" y="-12" type="curve" smooth="yes"></point>
      <point x="437" y="-12"></point>
      <point x="538" y="60"></point>
      <point x="538" y="271" type="curve" smooth="yes"></point>
      <point x="538" y="656" type="line"></point>
      <point x="458" y="656" type="line"></point>
      <point x="458" y="269" type="line" smooth="yes"></point>
      <point x="458" y="111"></point>
      <point x="390" y="61"></point>
      <point x="303" y="61" type="curve" smooth="yes"></point>
      <point x="217" y="61"></point>
      <point x="150" y="111"></point>
      <point x="150" y="269" type="curve" smooth="yes"></point>
      <point x="150" y="656" type="line"></point>
      <point x="67" y="656" type="line"></point>
    </contour>
  </outline>
</glyph>
<glyph name="V" format="1">
  <advance width="497"></advance>
  <unicode hex="0056"></unicode>
  <outline>
    <contour>
      <point x="203" y="0" type="line"></point>
      <point x="300" y="0" type="line"></point>
      <point x="508" y="656" type="line"></point>
      <point x="423" y="656" type="line"></point>
      <point x="318" y="302" type="line" smooth="yes"></point>
      <point x="295" y="224"></point>
      <point x="279" y="162"></point>
      <point x="255" y="85" type="curve"></point>
      <point x="251" y="85" type="line"></point>
      <point x="226" y="162"></point>
      <point x="211" y="224"></point>
      <point x="187" y="302" type="curve" smooth="yes"></point>
      <point x="82" y="656" type="line"></point>
      <point x="-6" y="656" type="line"></point>
    </contour>
  </outline>
</glyph>
<glyph name="X" format="1">
  <advance width="522"></advance>
  <unicode hex="0058"></unicode>
  <outline>
    <contour>
      <point x="21" y="0" type="line"></point>
      <point x="109" y="0" type="line"></point>
      <point x="204" y="177" type="line" smooth="yes"></point>
      <point x="220" y="209"></point>
      <point x="237" y="242"></point>
      <point x="256" y="282" type="curve"></point>
      <point x="260" y="282" type="line"></point>
      <point x="281" y="242"></point>
      <point x="299" y="209"></point>
      <point x="316" y="177" type="curve" smooth="yes"></point>
      <point x="412" y="0" type="line"></point>
      <point x="504" y="0" type="line"></point>
      <point x="313" y="335" type="line"></point>
      <point x="492" y="656" type="line"></point>
      <point x="404" y="656" type="line"></point>
      <point x="317" y="488" type="line" smooth="yes"></point>
      <point x="301" y="458"></point>
      <point x="288" y="431"></point>
      <point x="270" y="393" type="curve"></point>
      <point x="266" y="393" type="line"></point>
      <point x="246" y="431"></point>
      <point x="232" y="458"></point>
      <point x="215" y="488" type="curve" smooth="yes"></point>
      <point x="126" y="656" type="line"></point>
      <point x="34" y="656" type="line"></point>
      <point x="212" y="339" type="line"></point>
    </contour>
  </outline>
</glyph>
<glyph name="Y" format="1">
  <advance width="472"></advance>
  <unicode hex="0059"></unicode>
  <outline>
    <contour>
      <point x="190" y="0" type="line"></point>
      <point x="274" y="0" type="line"></point>
      <point x="274" y="254" type="line"></point>
      <point x="471" y="656" type="line"></point>
      <point x="384" y="656" type="line"></point>
      <point x="300" y="471" type="line" smooth="yes"></point>
      <point x="280" y="423"></point>
      <point x="257" y="377"></point>
      <point x="234" y="328" type="curve"></point>
      <point x="230" y="328" type="line"></point>
      <point x="208" y="377"></point>
      <point x="188" y="423"></point>
      <point x="167" y="471" type="curve" smooth="yes"></point>
      <point x="82" y="656" type="line"></point>
      <point x="-6" y="656" type="line"></point>
      <point x="190" y="254" type="line"></point>
    </contour>
  </outline>
</glyph>
<glyph name="bracketleft" format="1">
  <advance width="348"></advance>
  <unicode hex="005B"></unicode>
  <outline>
    <contour>
      <point x="93" y="-152" type="line"></point>
      <point x="272" y="-152" type="line"></point>
      <point x="272" y="-105" type="line"></point>
      <point x="155" y="-105" type="line"></point>
      <point x="155" y="661" type="line"></point>
      <point x="272" y="661" type="line"></point>
      <point x="272" y="708" type="line"></point>
      <point x="93" y="708" type="line"></point>
    </contour>
  </outline>
</glyph>
<glyph name="backslash" format="1">
  <advance width="398"></advance>
  <unicode hex="005C"></unicode>
  <outline>
    <contour>
      <point x="297" y="-160" type="line"></point>
      <point x="356" y="-160" type="line"></point>
      <point x="89" y="710" type="line"></point>
      <point x="30" y="710" type="line"></point>
    </contour>
  </outline>
</glyph>
<glyph name="bracketright" format="1">
  <advance width="398"></advance>
  <unicode hex="005D"></unicode>
  <outline>
    <contour>
      <point x="121" y="-105" type="line"></point>
      <point x="121" y="-152" type="line"></point>
      <point x="299" y="-152" type="line"></point>
      <point x="299" y="708" type="line"></point>
      <point x="121" y="708" type="line"></point>
      <point x="121" y="661" type="line"></point>
      <point x="237" y="661" type="line"></point>
      <point x="237" y="-105" type="line"></point>
    </contour>
  </outline>
</glyph>
<glyph name="asciicircum" format="1">
  <advance width="472"></advance>
  <unicode hex="005E"></unicode>
  <outline>
    <contour>
      <point x="50" y="284" type="line"></point>
      <point x="122" y="284" type="line"></point>
      <point x="187" y="460" type="line"></point>
      <point x="237" y="593" type="line"></point>
      <point x="241" y="593" type="line"></point>
      <point x="290" y="460" type="line"></point>
      <point x="355" y="284" type="line"></point>
      <point x="427" y="284" type="line"></point>
      <point x="275" y="670" type="line"></point>
      <point x="202" y="670" type="line"></point>
    </contour>
  </outline>
</glyph>
<glyph name="b" format="1">
  <advance width="547"></advance>
  <unicode hex="0062"></unicode>
  <outline>
    <contour>
      <point x="73" y="0" type="line"></point>
      <point x="139" y="0" type="line"></point>
      <point x="146" y="48" type="line"></point>
      <point x="149" y="48" type="line"></point>
      <point x="192" y="10"></point>
      <point x="243" y="-12"></point>
      <point x="288" y="-12" type="curve" smooth="yes"></point>
      <point x="399" y="-12"></point>
      <point x="498" y="85"></point>
      <point x="498" y="251" type="curve" smooth="yes"></point>
      <point x="498" y="401"></point>
      <point x="431" y="498"></point>
      <point x="305" y="498" type="curve" smooth="yes"></point>
      <point x="251" y="498"></point>
      <point x="197" y="469"></point>
      <point x="153" y="430" type="curve"></point>
      <point x="155" y="518" type="line"></point>
      <point x="155" y="712" type="line"></point>
      <point x="73" y="712" type="line"></point>
    </contour>
    <contour>
      <point x="155" y="108" type="curve"></point>
      <point x="155" y="363" type="line"></point>
      <point x="201" y="406"></point>
      <point x="244" y="429"></point>
      <point x="285" y="429" type="curve" smooth="yes"></point>
      <point x="377" y="429"></point>
      <point x="413" y="357"></point>
      <point x="413" y="250" type="curve" smooth="yes"></point>
      <point x="413" y="130"></point>
      <point x="354" y="57"></point>
      <point x="274" y="57" type="curve" smooth="yes"></point>
      <point x="242" y="57"></point>
      <point x="198" y="71"></point>
    </contour>
  </outline>
</glyph>
<glyph name="f" format="1">
  <advance width="298"></advance>
  <unicode hex="0066"></unicode>
  <outline>
    <contour>
      <point x="336" y="708" type="line"></point>
      <point x="314" y="717"></point>
      <point x="285" y="724"></point>
      <point x="255" y="724" type="curve" smooth="yes"></point>
      <point x="158" y="724"></point>
      <point x="113" y="662"></point>
      <point x="113" y="563" type="curve" smooth="yes"></point>
      <point x="113" y="486" type="line"></point>
      <point x="47" y="481" type="line"></point>
      <point x="47" y="419" type="line"></point>
      <point x="113" y="419" type="line"></point>
      <point x="113" y="0" type="line"></point>
      <point x="195" y="0" type="line"></point>
      <point x="195" y="419" type="line"></point>
      <point x="298" y="419" type="line"></point>
      <point x="298" y="486" type="line"></point>
      <point x="195" y="486" type="line"></point>
      <point x="195" y="563" type="line" smooth="yes"></point>
      <point x="195" y="625"></point>
      <point x="217" y="657"></point>
      <point x="263" y="657" type="curve" smooth="yes"></point>
      <point x="281" y="657"></point>
      <point x="300" y="653"></point>
      <point x="318" y="645" type="curve"></point>
    </contour>
  </outline>
</glyph>
<glyph name="g" format="1">
  <advance width="522"></advance>
  <unicode hex="0067"></unicode>
  <outline>
    <contour>
      <point x="111" y="-82" type="curve" smooth="yes"></point>
      <point x="111" y="-54"></point>
      <point x="126" y="-25"></point>
      <point x="161" y="0" type="curve"></point>
      <point x="182" y="-6"></point>
      <point x="205" y="-8"></point>
      <point x="224" y="-8" type="curve" smooth="yes"></point>
      <point x="308" y="-8" type="line" smooth="yes"></point>
      <point x="371" y="-8"></point>
      <point x="406" y="-23"></point>
      <point x="406" y="-68" type="curve" smooth="yes"></point>
      <point x="406" y="-119"></point>
      <point x="345" y="-167"></point>
      <point x="252" y="-167" type="curve" smooth="yes"></point>
      <point x="164" y="-167"></point>
      <point x="111" y="-134"></point>
    </contour>
    <contour>
      <point x="39" y="-93" type="curve" smooth="yes"></point>
      <point x="39" y="-177"></point>
      <point x="121" y="-224"></point>
      <point x="240" y="-224" type="curve" smooth="yes"></point>
      <point x="391" y="-224"></point>
      <point x="486" y="-146"></point>
      <point x="486" y="-56" type="curve" smooth="yes"></point>
      <point x="486" y="25"></point>
      <point x="429" y="60"></point>
      <point x="316" y="60" type="curve" smooth="yes"></point>
      <point x="222" y="60" type="line" smooth="yes"></point>
      <point x="156" y="60"></point>
      <point x="136" y="82"></point>
      <point x="136" y="113" type="curve" smooth="yes"></point>
      <point x="136" y="140"></point>
      <point x="150" y="156"></point>
      <point x="167" y="171" type="curve"></point>
      <point x="189" y="160"></point>
      <point x="216" y="154"></point>
      <point x="240" y="154" type="curve" smooth="yes"></point>
      <point x="339" y="154"></point>
      <point x="418" y="219"></point>
      <point x="418" y="323" type="curve" smooth="yes"></point>
      <point x="418" y="364"></point>
      <point x="401" y="401"></point>
      <point x="378" y="423" type="curve"></point>
      <point x="478" y="423" type="line"></point>
      <point x="478" y="486" type="line"></point>
      <point x="309" y="486" type="line"></point>
      <point x="291" y="493"></point>
      <point x="267" y="498"></point>
      <point x="240" y="498" type="curve" smooth="yes"></point>
      <point x="141" y="498"></point>
      <point x="57" y="431"></point>
      <point x="57" y="325" type="curve" smooth="yes"></point>
      <point x="57" y="267"></point>
      <point x="88" y="220"></point>
      <point x="120" y="194" type="curve"></point>
      <point x="120" y="190" type="line"></point>
      <point x="95" y="173"></point>
      <point x="67" y="141"></point>
      <point x="67" y="100" type="curve" smooth="yes"></point>
      <point x="67" y="62"></point>
      <point x="86" y="36"></point>
      <point x="110" y="21" type="curve"></point>
      <point x="110" y="17" type="line"></point>
      <point x="66" y="-13"></point>
      <point x="39" y="-52"></point>
    </contour>
    <contour>
      <point x="240" y="209" type="curve" smooth="yes"></point>
      <point x="184" y="209"></point>
      <point x="137" y="254"></point>
      <point x="137" y="325" type="curve" smooth="yes"></point>
      <point x="137" y="396"></point>
      <point x="183" y="438"></point>
      <point x="240" y="438" type="curve" smooth="yes"></point>
      <point x="297" y="438"></point>
      <point x="343" y="396"></point>
      <point x="343" y="325" type="curve" smooth="yes"></point>
      <point x="343" y="254"></point>
      <point x="296" y="209"></point>
    </contour>
  </outline>
</glyph>
<glyph name="h" format="1">
  <advance width="547"></advance>
  <unicode hex="0068"></unicode>
  <outline>
    <contour>
      <point x="76" y="0" type="line"></point>
      <point x="158" y="0" type="line"></point>
      <point x="158" y="352" type="line"></point>
      <point x="207" y="401"></point>
      <point x="241" y="427"></point>
      <point x="291" y="427" type="curve" smooth="yes"></point>
      <point x="355" y="427"></point>
      <point x="383" y="388"></point>
      <point x="383" y="297" type="curve" smooth="yes"></point>
      <point x="383" y="0" type="line"></point>
      <point x="465" y="0" type="line"></point>
      <point x="465" y="308" type="line" smooth="yes"></point>
      <point x="465" y="432"></point>
      <point x="419" y="498"></point>
      <point x="317" y="498" type="curve" smooth="yes"></point>
      <point x="250" y="498"></point>
      <point x="201" y="462"></point>
      <point x="155" y="418" type="curve"></point>
      <point x="158" y="518" type="line"></point>
      <point x="158" y="712" type="line"></point>
      <point x="76" y="712" type="line"></point>
    </contour>
  </outline>
</glyph>
<glyph name="i" format="1">
  <advance width="273"></advance>
  <unicode hex="0069"></unicode>
  <outline>
    <contour>
      <point x="135" y="586" type="curve" smooth="yes"></point>
      <point x="167" y="586"></point>
      <point x="192" y="608"></point>
      <point x="192" y="639" type="curve" smooth="yes"></point>
      <point x="192" y="671"></point>
      <point x="167" y="692"></point>
      <point x="135" y="692" type="curve" smooth="yes"></point>
      <point x="103" y="692"></point>
      <point x="78" y="671"></point>
      <point x="78" y="639" type="curve" smooth="yes"></point>
      <point x="78" y="608"></point>
      <point x="103" y="586"></point>
    </contour>
    <contour>
      <point x="93" y="0" type="line"></point>
      <point x="175" y="0" type="line"></point>
      <point x="175" y="486" type="line"></point>
      <point x="93" y="486" type="line"></point>
    </contour>
  </outline>
</glyph>
<glyph name="j" format="1">
  <advance width="323"></advance>
  <unicode hex="006A"></unicode>
  <outline>
    <contour>
      <point x="133" y="-55" type="line" smooth="yes"></point>
      <point x="133" y="-114"></point>
      <point x="121" y="-150"></point>
      <point x="73" y="-150" type="curve" smooth="yes"></point>
      <point x="56" y="-150"></point>
      <point x="39" y="-146"></point>
      <point x="27" y="-142" type="curve"></point>
      <point x="10" y="-204" type="line"></point>
      <point x="27" y="-211"></point>
      <point x="52" y="-217"></point>
      <point x="82" y="-217" type="curve" smooth="yes"></point>
      <point x="179" y="-217"></point>
      <point x="215" y="-154"></point>
      <point x="215" y="-55" type="curve" smooth="yes"></point>
      <point x="215" y="486" type="line"></point>
      <point x="133" y="486" type="line"></point>
    </contour>
    <contour>
      <point x="175" y="586" type="curve" smooth="yes"></point>
      <point x="206" y="586"></point>
      <point x="231" y="608"></point>
      <point x="231" y="639" type="curve" smooth="yes"></point>
      <point x="231" y="671"></point>
      <point x="206" y="692"></point>
      <point x="175" y="692" type="curve" smooth="yes"></point>
      <point x="143" y="692"></point>
      <point x="118" y="671"></point>
      <point x="118" y="639" type="curve" smooth="yes"></point>
      <point x="118" y="608"></point>
      <point x="143" y="586"></point>
    </contour>
  </outline>
</glyph>
<glyph name="k" format="1">
  <advance width="497"></advance>
  <unicode hex="006B"></unicode>
  <outline>
    <contour>
      <point x="76" y="0" type="line"></point>
      <point x="157" y="0" type="line"></point>
      <point x="157" y="128" type="line"></point>
      <point x="248" y="234" type="line"></point>
      <point x="390" y="0" type="line"></point>
      <point x="480" y="0" type="line"></point>
      <point x="295" y="291" type="line"></point>
      <point x="458" y="486" type="line"></point>
      <point x="367" y="486" type="line"></point>
      <point x="160" y="230" type="line"></point>
      <point x="157" y="230" type="line"></point>
      <point x="157" y="712" type="line"></point>
      <point x="76" y="712" type="line"></point>
    </contour>
  </outline>
</glyph>
<glyph name="l" format="1">
  <advance width="273"></advance>
  <unicode hex="006C"></unicode>
  <outline>
    <contour>
      <point x="99" y="98" type="line" smooth="yes"></point>
      <point x="99" y="27"></point>
      <point x="124" y="-12"></point>
      <point x="186" y="-12" type="curve" smooth="yes"></point>
      <point x="208" y="-12"></point>
      <point x="222" y="-9"></point>
      <point x="233" y="-4" type="curve"></point>
      <point x="222" y="58" type="line"></point>
      <point x="213" y="56"></point>
      <point x="209" y="56"></point>
      <point x="204" y="56" type="curve" smooth="yes"></point>
      <point x="192" y="56"></point>
      <point x="181" y="66"></point>
      <point x="181" y="92" type="curve" smooth="yes"></point>
      <point x="181" y="712" type="line"></point>
      <point x="99" y="712" type="line"></point>
    </contour>
  </outline>
</glyph>
<glyph name="m" format="1">
  <advance width="829"/>
  <unicode hex="006D"/>
  <outline>
    <contour>
      <point x="79" y="0" type="line"/>
      <point x="161" y="0" type="line"/>
      <point x="161" y="352" type="line"/>
      <point x="206" y="402"/>
      <point x="247" y="427"/>
      <point x="283" y="427" type="curve" smooth="yes"/>
      <point x="345" y="427"/>
      <point x="374" y="388"/>
      <point x="374" y="297" type="curve" smooth="yes"/>
      <point x="374" y="0" type="line"/>
      <point x="456" y="0" type="line"/>
      <point x="456" y="352" type="line"/>
      <point x="501" y="402"/>
      <point x="540" y="427"/>
      <point x="578" y="427" type="curve" smooth="yes"/>
      <point x="639" y="427"/>
      <point x="668" y="388"/>
      <point x="668" y="297" type="curve" smooth="yes"/>
      <point x="668" y="0" type="line"/>
      <point x="750" y="0" type="line"/>
      <point x="750" y="308" type="line" smooth="yes"/>
      <point x="750" y="432"/>
      <point x="702" y="498"/>
      <point x="602" y="498" type="curve" smooth="yes"/>
      <point x="543" y="498"/>
      <point x="493" y="460"/>
      <point x="442" y="405" type="curve"/>
      <point x="422" y="463"/>
      <point x="382" y="498"/>
      <point x="308" y="498" type="curve" smooth="yes"/>
      <point x="250" y="498"/>
      <point x="199" y="462"/>
      <point x="157" y="416" type="curve"/>
      <point x="154" y="416" type="line"/>
      <point x="147" y="486" type="line"/>
      <point x="79" y="486" type="line"/>
    </contour>
  </outline>
</glyph>
<glyph name="p" format="1">
  <advance width="547"></advance>
  <unicode hex="0070"></unicode>
  <outline>
    <contour>
      <point x="153" y="44" type="line"></point>
      <point x="198" y="9"></point>
      <point x="243" y="-12"></point>
      <point x="288" y="-12" type="curve" smooth="yes"></point>
      <point x="399" y="-12"></point>
      <point x="498" y="85"></point>
      <point x="498" y="250" type="curve" smooth="yes"></point>
      <point x="498" y="401"></point>
      <point x="431" y="498"></point>
      <point x="306" y="498" type="curve" smooth="yes"></point>
      <point x="249" y="498"></point>
      <point x="195" y="467"></point>
      <point x="151" y="430" type="curve"></point>
      <point x="148" y="430" type="line"></point>
      <point x="141" y="486" type="line"></point>
      <point x="73" y="486" type="line"></point>
      <point x="73" y="-205" type="line"></point>
      <point x="155" y="-205" type="line"></point>
      <point x="155" y="-41" type="line"></point>
    </contour>
    <contour>
      <point x="155" y="108" type="curve"></point>
      <point x="155" y="363" type="line"></point>
      <point x="203" y="406"></point>
      <point x="244" y="429"></point>
      <point x="285" y="429" type="curve" smooth="yes"></point>
      <point x="377" y="429"></point>
      <point x="413" y="357"></point>
      <point x="413" y="250" type="curve" smooth="yes"></point>
      <point x="413" y="130"></point>
      <point x="354" y="57"></point>
      <point x="274" y="57" type="curve" smooth="yes"></point>
      <point x="242" y="57"></point>
      <point x="199" y="71"></point>
    </contour>
  </outline>
</glyph>
<glyph name="q" format="1">
  <advance width="547"></advance>
  <unicode hex="0071"></unicode>
  <outline>
    <contour>
      <point x="53" y="242" type="curve" smooth="yes"></point>
      <point x="53" y="80"></point>
      <point x="132" y="-12"></point>
      <point x="254" y="-12" type="curve" smooth="yes"></point>
      <point x="310" y="-12"></point>
      <point x="361" y="18"></point>
      <point x="400" y="54" type="curve"></point>
      <point x="396" y="-32" type="line"></point>
      <point x="396" y="-205" type="line"></point>
      <point x="479" y="-205" type="line"></point>
      <point x="479" y="486" type="line"></point>
      <point x="413" y="486" type="line"></point>
      <point x="405" y="440" type="line"></point>
      <point x="403" y="440" type="line"></point>
      <point x="359" y="478"></point>
      <point x="320" y="498"></point>
      <point x="264" y="498" type="curve" smooth="yes"></point>
      <point x="153" y="498"></point>
      <point x="53" y="400"></point>
    </contour>
    <contour>
      <point x="138" y="243" type="curve" smooth="yes"></point>
      <point x="138" y="354"></point>
      <point x="200" y="429"></point>
      <point x="278" y="429" type="curve" smooth="yes"></point>
      <point x="318" y="429"></point>
      <point x="355" y="415"></point>
      <point x="396" y="378" type="curve"></point>
      <point x="396" y="124" type="line"></point>
      <point x="356" y="79"></point>
      <point x="317" y="57"></point>
      <point x="272" y="57" type="curve" smooth="yes"></point>
      <point x="187" y="57"></point>
      <point x="138" y="127"></point>
    </contour>
  </outline>
</glyph>
<glyph name="r" format="1">
  <advance width="348"></advance>
  <unicode hex="0072"></unicode>
  <outline>
    <contour>
      <point x="79" y="0" type="line"></point>
      <point x="161" y="0" type="line"></point>
      <point x="161" y="312" type="line"></point>
      <point x="194" y="394"></point>
      <point x="243" y="424"></point>
      <point x="284" y="424" type="curve" smooth="yes"></point>
      <point x="304" y="424"></point>
      <point x="315" y="421"></point>
      <point x="331" y="416" type="curve"></point>
      <point x="347" y="488" type="line"></point>
      <point x="331" y="495"></point>
      <point x="316" y="498"></point>
      <point x="295" y="498" type="curve" smooth="yes"></point>
      <point x="240" y="498"></point>
      <point x="190" y="459"></point>
      <point x="157" y="398" type="curve"></point>
      <point x="154" y="398" type="line"></point>
      <point x="147" y="486" type="line"></point>
      <point x="79" y="486" type="line"></point>
    </contour>
  </outline>
</glyph>
<glyph name="s" format="1">
  <advance width="447"></advance>
  <unicode hex="0073"></unicode>
  <outline>
    <contour>
      <point x="40" y="55" type="line"></point>
      <point x="86" y="17"></point>
      <point x="152" y="-12"></point>
      <point x="221" y="-12" type="curve" smooth="yes"></point>
      <point x="336" y="-12"></point>
      <point x="399" y="54"></point>
      <point x="399" y="133" type="curve" smooth="yes"></point>
      <point x="399" y="225"></point>
      <point x="321" y="254"></point>
      <point x="251" y="280" type="curve" smooth="yes"></point>
      <point x="196" y="301"></point>
      <point x="143" y="318"></point>
      <point x="143" y="364" type="curve" smooth="yes"></point>
      <point x="143" y="401"></point>
      <point x="171" y="434"></point>
      <point x="232" y="434" type="curve" smooth="yes"></point>
      <point x="275" y="434"></point>
      <point x="310" y="416"></point>
      <point x="343" y="391" type="curve"></point>
      <point x="382" y="443" type="line"></point>
      <point x="345" y="473"></point>
      <point x="292" y="498"></point>
      <point x="231" y="498" type="curve" smooth="yes"></point>
      <point x="126" y="498"></point>
      <point x="64" y="438"></point>
      <point x="64" y="360" type="curve" smooth="yes"></point>
      <point x="64" y="278"></point>
      <point x="140" y="245"></point>
      <point x="209" y="220" type="curve" smooth="yes"></point>
      <point x="262" y="200"></point>
      <point x="320" y="178"></point>
      <point x="320" y="128" type="curve" smooth="yes"></point>
      <point x="320" y="86"></point>
      <point x="288" y="52"></point>
      <point x="224" y="52" type="curve" smooth="yes"></point>
      <point x="166" y="52"></point>
      <point x="123" y="76"></point>
      <point x="81" y="110" type="curve"></point>
    </contour>
  </outline>
</glyph>
<glyph name="t" format="1">
  <advance width="348"></advance>
  <unicode hex="0074"></unicode>
  <outline>
    <contour>
      <point x="116" y="150" type="line" smooth="yes"></point>
      <point x="116" y="54"></point>
      <point x="151" y="-12"></point>
      <point x="255" y="-12" type="curve" smooth="yes"></point>
      <point x="285" y="-12"></point>
      <point x="318" y="-3"></point>
      <point x="345" y="6" type="curve"></point>
      <point x="329" y="68" type="line"></point>
      <point x="313" y="62"></point>
      <point x="291" y="55"></point>
      <point x="274" y="55" type="curve" smooth="yes"></point>
      <point x="218" y="55"></point>
      <point x="199" y="89"></point>
      <point x="199" y="149" type="curve" smooth="yes"></point>
      <point x="199" y="419" type="line"></point>
      <point x="330" y="419" type="line"></point>
      <point x="330" y="486" type="line"></point>
      <point x="199" y="486" type="line"></point>
      <point x="199" y="622" type="line"></point>
      <point x="130" y="622" type="line"></point>
      <point x="120" y="486" type="line"></point>
      <point x="44" y="481" type="line"></point>
      <point x="44" y="419" type="line"></point>
      <point x="116" y="419" type="line"></point>
    </contour>
  </outline>
</glyph>
<glyph name="v" format="1">
  <advance width="472"></advance>
  <unicode hex="0076"></unicode>
  <outline>
    <contour>
      <point x="185" y="0" type="line"></point>
      <point x="281" y="0" type="line"></point>
      <point x="453" y="486" type="line"></point>
      <point x="372" y="486" type="line"></point>
      <point x="280" y="210" type="line" smooth="yes"></point>
      <point x="266" y="162"></point>
      <point x="250" y="113"></point>
      <point x="236" y="67" type="curve"></point>
      <point x="232" y="67" type="line"></point>
      <point x="217" y="113"></point>
      <point x="201" y="162"></point>
      <point x="187" y="210" type="curve" smooth="yes"></point>
      <point x="95" y="486" type="line"></point>
      <point x="10" y="486" type="line"></point>
    </contour>
  </outline>
</glyph>
<glyph name="w" format="1">
  <advance width="696"></advance>
  <unicode hex="0077"></unicode>
  <outline>
    <contour>
      <point x="148" y="0" type="line"></point>
      <point x="244" y="0" type="line"></point>
      <point x="312" y="260" type="line" smooth="yes"></point>
      <point x="325" y="306"></point>
      <point x="335" y="352"></point>
      <point x="346" y="401" type="curve"></point>
      <point x="350" y="401" type="line"></point>
      <point x="362" y="352"></point>
      <point x="371" y="307"></point>
      <point x="383" y="261" type="curve" smooth="yes"></point>
      <point x="453" y="0" type="line"></point>
      <point x="553" y="0" type="line"></point>
      <point x="683" y="486" type="line"></point>
      <point x="605" y="486" type="line"></point>
      <point x="534" y="205" type="line" smooth="yes"></point>
      <point x="524" y="159"></point>
      <point x="515" y="115"></point>
      <point x="504" y="70" type="curve"></point>
      <point x="500" y="70" type="line"></point>
      <point x="489" y="115"></point>
      <point x="478" y="159"></point>
      <point x="466" y="205" type="curve" smooth="yes"></point>
      <point x="390" y="486" type="line"></point>
      <point x="310" y="486" type="line"></point>
      <point x="235" y="205" type="line" smooth="yes"></point>
      <point x="223" y="160"></point>
      <point x="213" y="115"></point>
      <point x="202" y="70" type="curve"></point>
      <point x="198" y="70" type="line"></point>
      <point x="189" y="115"></point>
      <point x="180" y="159"></point>
      <point x="169" y="205" type="curve" smooth="yes"></point>
      <point x="97" y="486" type="line"></point>
      <point x="13" y="486" type="line"></point>
    </contour>
  </outline>
</glyph>
<glyph name="x" format="1">
  <advance width="422"></advance>
  <unicode hex="0078"></unicode>
  <outline>
    <contour>
      <point x="1" y="0" type="line"></point>
      <point x="87" y="0" type="line"></point>
      <point x="153" y="113" type="line" smooth="yes"></point>
      <point x="169" y="143"></point>
      <point x="185" y="172"></point>
      <point x="202" y="200" type="curve"></point>
      <point x="206" y="200" type="line"></point>
      <point x="224" y="172"></point>
      <point x="242" y="142"></point>
      <point x="259" y="113" type="curve" smooth="yes"></point>
      <point x="330" y="0" type="line"></point>
      <point x="419" y="0" type="line"></point>
      <point x="261" y="245" type="line"></point>
      <point x="408" y="486" type="line"></point>
      <point x="322" y="486" type="line"></point>
      <point x="263" y="379" type="line" smooth="yes"></point>
      <point x="248" y="353"></point>
      <point x="233" y="325"></point>
      <point x="219" y="298" type="curve"></point>
      <point x="215" y="298" type="line"></point>
      <point x="198" y="325"></point>
      <point x="182" y="353"></point>
      <point x="167" y="379" type="curve" smooth="yes"></point>
      <point x="102" y="486" type="line"></point>
      <point x="13" y="486" type="line"></point>
      <point x="160" y="254" type="line"></point>
    </contour>
  </outline>
</glyph>
<glyph name="y" format="1">
  <advance width="472"></advance>
  <unicode hex="0079"></unicode>
  <outline>
    <contour>
      <point x="53" y="-134" type="curve"></point>
      <point x="37" y="-199" type="line"></point>
      <point x="53" y="-205"></point>
      <point x="72" y="-209"></point>
      <point x="94" y="-209" type="curve" smooth="yes"></point>
      <point x="192" y="-209"></point>
      <point x="242" y="-136"></point>
      <point x="276" y="-40" type="curve" smooth="yes"></point>
      <point x="459" y="486" type="line"></point>
      <point x="379" y="486" type="line"></point>
      <point x="292" y="217" type="line" smooth="yes"></point>
      <point x="279" y="174"></point>
      <point x="265" y="124"></point>
      <point x="251" y="80" type="curve"></point>
      <point x="247" y="80" type="line"></point>
      <point x="232" y="125"></point>
      <point x="215" y="175"></point>
      <point x="200" y="217" type="curve" smooth="yes"></point>
      <point x="101" y="486" type="line"></point>
      <point x="16" y="486" type="line"></point>
      <point x="211" y="-1" type="line"></point>
      <point x="200" y="-37" type="line" smooth="yes"></point>
      <point x="180" y="-97"></point>
      <point x="145" y="-141"></point>
      <point x="90" y="-141" type="curve" smooth="yes"></point>
      <point x="78" y="-141"></point>
      <point x="63" y="-137"></point>
    </contour>
  </outline>
</glyph>
<glyph name="z" format="1">
  <advance width="447"></advance>
  <unicode hex="007A"></unicode>
  <outline>
    <contour>
      <point x="38" y="0" type="line"></point>
      <point x="406" y="0" type="line"></point>
      <point x="406" y="67" type="line"></point>
      <point x="142" y="67" type="line"></point>
      <point x="398" y="442" type="line"></point>
      <point x="398" y="486" type="line"></point>
      <point x="66" y="486" type="line"></point>
      <point x="66" y="419" type="line"></point>
      <point x="294" y="419" type="line"></point>
      <point x="38" y="44" type="line"></point>
    </contour>
  </outline>
</glyph>
<glyph name="braceleft" format="1">
  <advance width="373"></advance>
  <unicode hex="007B"></unicode>
  <outline>
    <contour>
      <point x="288" y="-105" type="line" smooth="yes"></point>
      <point x="234" y="-105"></point>
      <point x="220" y="-79"></point>
      <point x="220" y="-14" type="curve" smooth="yes"></point>
      <point x="220" y="47"></point>
      <point x="226" y="99"></point>
      <point x="226" y="167" type="curve" smooth="yes"></point>
      <point x="226" y="231"></point>
      <point x="209" y="264"></point>
      <point x="166" y="276" type="curve"></point>
      <point x="166" y="280" type="line"></point>
      <point x="209" y="292"></point>
      <point x="226" y="324"></point>
      <point x="226" y="389" type="curve" smooth="yes"></point>
      <point x="226" y="457"></point>
      <point x="220" y="509"></point>
      <point x="220" y="570" type="curve" smooth="yes"></point>
      <point x="220" y="635"></point>
      <point x="234" y="661"></point>
      <point x="288" y="661" type="curve" smooth="yes"></point>
      <point x="315" y="661" type="line"></point>
      <point x="315" y="708" type="line"></point>
      <point x="270" y="708" type="line" smooth="yes"></point>
      <point x="191" y="708"></point>
      <point x="153" y="678"></point>
      <point x="153" y="575" type="curve" smooth="yes"></point>
      <point x="153" y="502"></point>
      <point x="162" y="449"></point>
      <point x="162" y="381" type="curve" smooth="yes"></point>
      <point x="162" y="343"></point>
      <point x="144" y="305"></point>
      <point x="76" y="304" type="curve"></point>
      <point x="76" y="252" type="line"></point>
      <point x="144" y="251"></point>
      <point x="162" y="213"></point>
      <point x="162" y="174" type="curve" smooth="yes"></point>
      <point x="162" y="107"></point>
      <point x="153" y="54"></point>
      <point x="153" y="-19" type="curve" smooth="yes"></point>
      <point x="153" y="-122"></point>
      <point x="191" y="-152"></point>
      <point x="270" y="-152" type="curve" smooth="yes"></point>
      <point x="315" y="-152" type="line"></point>
      <point x="315" y="-105" type="line"></point>
    </contour>
  </outline>
</glyph>
<glyph name="bar" format="1">
  <advance width="273"></advance>
  <unicode hex="007C"></unicode>
  <outline>
    <contour>
      <point x="110" y="-250" type="line"></point>
      <point x="168" y="-250" type="line"></point>
      <point x="168" y="750" type="line"></point>
      <point x="110" y="750" type="line"></point>
    </contour>
  </outline>
</glyph>
<glyph name="braceright" format="1">
  <advance width="447"></advance>
  <unicode hex="007D"></unicode>
  <outline>
    <contour>
      <point x="121" y="-105" type="line"></point>
      <point x="121" y="-152" type="line"></point>
      <point x="165" y="-152" type="line" smooth="yes"></point>
      <point x="245" y="-152"></point>
      <point x="282" y="-122"></point>
      <point x="282" y="-19" type="curve" smooth="yes"></point>
      <point x="282" y="54"></point>
      <point x="273" y="107"></point>
      <point x="273" y="174" type="curve" smooth="yes"></point>
      <point x="273" y="213"></point>
      <point x="292" y="251"></point>
      <point x="359" y="252" type="curve"></point>
      <point x="359" y="304" type="line"></point>
      <point x="292" y="305"></point>
      <point x="273" y="343"></point>
      <point x="273" y="381" type="curve" smooth="yes"></point>
      <point x="273" y="449"></point>
      <point x="282" y="502"></point>
      <point x="282" y="575" type="curve" smooth="yes"></point>
      <point x="282" y="678"></point>
      <point x="245" y="708"></point>
      <point x="165" y="708" type="curve" smooth="yes"></point>
      <point x="121" y="708" type="line"></point>
      <point x="121" y="661" type="line"></point>
      <point x="147" y="661" type="line" smooth="yes"></point>
      <point x="201" y="661"></point>
      <point x="215" y="635"></point>
      <point x="215" y="570" type="curve" smooth="yes"></point>
      <point x="215" y="509"></point>
      <point x="210" y="457"></point>
      <point x="210" y="389" type="curve" smooth="yes"></point>
      <point x="210" y="324"></point>
      <point x="226" y="292"></point>
      <point x="269" y="280" type="curve"></point>
      <point x="269" y="276" type="line"></point>
      <point x="226" y="264"></point>
      <point x="210" y="231"></point>
      <point x="210" y="167" type="curve" smooth="yes"></point>
      <point x="210" y="99"></point>
      <point x="215" y="47"></point>
      <point x="215" y="-14" type="curve" smooth="yes"></point>
      <point x="215" y="-79"></point>
      <point x="201" y="-105"></point>
      <point x="147" y="-105" type="curve" smooth="yes"></point>
    </contour>
  </outline>
</glyph>
<glyph name="asciitilde" format="1">
  <advance width="547"></advance>
  <unicode hex="007E"></unicode>
  <outline>
    <contour>
      <point x="99" y="280" type="line"></point>
      <point x="122" y="323"></point>
      <point x="147" y="341"></point>
      <point x="176" y="341" type="curve" smooth="yes"></point>
      <point x="232" y="341"></point>
      <point x="274" y="257"></point>
      <point x="353" y="257" type="curve" smooth="yes"></point>
      <point x="396" y="257"></point>
      <point x="442" y="283"></point>
      <point x="478" y="346" type="curve"></point>
      <point x="432" y="380" type="line"></point>
      <point x="409" y="337"></point>
      <point x="384" y="319"></point>
      <point x="355" y="319" type="curve" smooth="yes"></point>
      <point x="299" y="319"></point>
      <point x="257" y="403"></point>
      <point x="178" y="403" type="curve" smooth="yes"></point>
      <point x="135" y="403"></point>
      <point x="89" y="377"></point>
      <point x="53" y="313" type="curve"></point>
    </contour>
  </outline>
</glyph>
<glyph name="exclamdown" format="1">
  <advance width="298"></advance>
  <unicode hex="00A1"></unicode>
  <outline>
    <contour>
      <point x="178" y="288" type="line"></point>
      <point x="121" y="288" type="line"></point>
      <point x="110" y="-90" type="line"></point>
      <point x="108" y="-184" type="line"></point>
      <point x="191" y="-184" type="line"></point>
      <point x="189" y="-90" type="line"></point>
    </contour>
    <contour>
      <point x="209" y="436" type="curve" smooth="yes"></point>
      <point x="209" y="472"></point>
      <point x="182" y="498"></point>
      <point x="150" y="498" type="curve" smooth="yes"></point>
      <point x="117" y="498"></point>
      <point x="90" y="472"></point>
      <point x="90" y="436" type="curve" smooth="yes"></point>
      <point x="90" y="398"></point>
      <point x="117" y="372"></point>
      <point x="150" y="372" type="curve" smooth="yes"></point>
      <point x="182" y="372"></point>
      <point x="209" y="398"></point>
    </contour>
  </outline>
</glyph>
<glyph name="cent" format="1">
  <advance width="522"></advance>
  <unicode hex="00A2"></unicode>
  <outline>
    <contour>
      <point x="260" y="142" type="line"></point>
      <point x="185" y="159"></point>
      <point x="141" y="221"></point>
      <point x="141" y="310" type="curve" smooth="yes"></point>
      <point x="141" y="398"></point>
      <point x="187" y="460"></point>
      <point x="260" y="477" type="curve"></point>
    </contour>
    <contour>
      <point x="416" y="185" type="line"></point>
      <point x="389" y="161"></point>
      <point x="354" y="141"></point>
      <point x="312" y="138" type="curve"></point>
      <point x="312" y="482" type="line"></point>
      <point x="347" y="480"></point>
      <point x="376" y="464"></point>
      <point x="403" y="440" type="curve"></point>
      <point x="443" y="492" type="line"></point>
      <point x="412" y="521"></point>
      <point x="370" y="547"></point>
      <point x="312" y="550" type="curve"></point>
      <point x="312" y="653" type="line"></point>
      <point x="260" y="653" type="line"></point>
      <point x="260" y="547" type="line"></point>
      <point x="147" y="531"></point>
      <point x="59" y="448"></point>
      <point x="59" y="310" type="curve" smooth="yes"></point>
      <point x="59" y="169"></point>
      <point x="141" y="85"></point>
      <point x="260" y="71" type="curve"></point>
      <point x="260" y="-33" type="line"></point>
      <point x="312" y="-33" type="line"></point>
      <point x="312" y="70" type="line"></point>
      <point x="364" y="74"></point>
      <point x="413" y="98"></point>
      <point x="452" y="133" type="curve"></point>
    </contour>
  </outline>
</glyph>
<glyph name="sterling" format="1">
  <advance width="472"></advance>
  <unicode hex="00A3"></unicode>
  <outline>
    <contour>
      <point x="155" y="71" type="line"></point>
      <point x="155" y="75" type="line"></point>
      <point x="195" y="116"></point>
      <point x="217" y="159"></point>
      <point x="217" y="229" type="curve" smooth="yes"></point>
      <point x="217" y="249"></point>
      <point x="215" y="267"></point>
      <point x="212" y="285" type="curve"></point>
      <point x="358" y="285" type="line"></point>
      <point x="358" y="341" type="line"></point>
      <point x="199" y="341" type="line"></point>
      <point x="187" y="383"></point>
      <point x="175" y="422"></point>
      <point x="175" y="464" type="curve" smooth="yes"></point>
      <point x="175" y="533"></point>
      <point x="214" y="581"></point>
      <point x="286" y="581" type="curve" smooth="yes"></point>
      <point x="331" y="581"></point>
      <point x="362" y="559"></point>
      <point x="387" y="528" type="curve"></point>
      <point x="435" y="575" type="line"></point>
      <point x="400" y="618"></point>
      <point x="351" y="650"></point>
      <point x="280" y="650" type="curve" smooth="yes"></point>
      <point x="169" y="650"></point>
      <point x="94" y="579"></point>
      <point x="94" y="466" type="curve" smooth="yes"></point>
      <point x="94" y="424"></point>
      <point x="108" y="383"></point>
      <point x="121" y="341" type="curve"></point>
      <point x="103" y="341" type="line"></point>
      <point x="36" y="337" type="line"></point>
      <point x="36" y="285" type="line"></point>
      <point x="136" y="285" type="line"></point>
      <point x="140" y="267"></point>
      <point x="143" y="249"></point>
      <point x="143" y="230" type="curve" smooth="yes"></point>
      <point x="143" y="155"></point>
      <point x="105" y="87"></point>
      <point x="37" y="50" type="curve"></point>
      <point x="37" y="0" type="line"></point>
      <point x="436" y="0" type="line"></point>
      <point x="436" y="71" type="line"></point>
    </contour>
  </outline>
</glyph>
<glyph name="currency" format="1">
  <advance width="547"></advance>
  <unicode hex="00A4"></unicode>
  <outline>
    <contour>
      <point x="88" y="103" type="line"></point>
      <point x="156" y="172" type="line"></point>
      <point x="187" y="147"></point>
      <point x="226" y="134"></point>
      <point x="267" y="134" type="curve" smooth="yes"></point>
      <point x="306" y="134"></point>
      <point x="346" y="147"></point>
      <point x="377" y="172" type="curve"></point>
      <point x="445" y="103" type="line"></point>
      <point x="489" y="148" type="line"></point>
      <point x="424" y="213" type="line"></point>
      <point x="447" y="244"></point>
      <point x="461" y="283"></point>
      <point x="461" y="329" type="curve" smooth="yes"></point>
      <point x="461" y="375"></point>
      <point x="447" y="415"></point>
      <point x="424" y="446" type="curve"></point>
      <point x="489" y="512" type="line"></point>
      <point x="445" y="557" type="line"></point>
      <point x="377" y="487" type="line"></point>
      <point x="346" y="511"></point>
      <point x="306" y="524"></point>
      <point x="267" y="524" type="curve" smooth="yes"></point>
      <point x="226" y="524"></point>
      <point x="187" y="511"></point>
      <point x="156" y="487" type="curve"></point>
      <point x="88" y="557" type="line"></point>
      <point x="44" y="512" type="line"></point>
      <point x="108" y="446" type="line"></point>
      <point x="85" y="415"></point>
      <point x="72" y="375"></point>
      <point x="72" y="329" type="curve" smooth="yes"></point>
      <point x="72" y="283"></point>
      <point x="85" y="244"></point>
      <point x="108" y="213" type="curve"></point>
      <point x="44" y="148" type="line"></point>
    </contour>
    <contour>
      <point x="148" y="329" type="curve" smooth="yes"></point>
      <point x="148" y="409"></point>
      <point x="202" y="463"></point>
      <point x="267" y="463" type="curve" smooth="yes"></point>
      <point x="331" y="463"></point>
      <point x="385" y="409"></point>
      <point x="385" y="329" type="curve" smooth="yes"></point>
      <point x="385" y="249"></point>
      <point x="331" y="195"></point>
      <point x="267" y="195" type="curve" smooth="yes"></point>
      <point x="202" y="195"></point>
      <point x="148" y="249"></point>
    </contour>
  </outline>
</glyph>
<glyph name="yen" format="1">
  <advance width="497"></advance>
  <unicode hex="00A5"></unicode>
  <outline>
    <contour>
      <point x="24" y="638" type="line"></point>
      <point x="187" y="318" type="line"></point>
      <point x="46" y="318" type="line"></point>
      <point x="46" y="271" type="line"></point>
      <point x="208" y="271" type="line"></point>
      <point x="208" y="206" type="line"></point>
      <point x="46" y="206" type="line"></point>
      <point x="46" y="158" type="line"></point>
      <point x="208" y="158" type="line"></point>
      <point x="208" y="0" type="line"></point>
      <point x="290" y="0" type="line"></point>
      <point x="290" y="158" type="line"></point>
      <point x="453" y="158" type="line"></point>
      <point x="453" y="206" type="line"></point>
      <point x="290" y="206" type="line"></point>
      <point x="290" y="271" type="line"></point>
      <point x="453" y="271" type="line"></point>
      <point x="453" y="318" type="line"></point>
      <point x="311" y="318" type="line"></point>
      <point x="475" y="638" type="line"></point>
      <point x="391" y="638" type="line"></point>
      <point x="313" y="467" type="line" smooth="yes"></point>
      <point x="293" y="423"></point>
      <point x="274" y="379"></point>
      <point x="252" y="332" type="curve"></point>
      <point x="248" y="332" type="line"></point>
      <point x="227" y="379"></point>
      <point x="208" y="423"></point>
      <point x="188" y="467" type="curve" smooth="yes"></point>
      <point x="110" y="638" type="line"></point>
    </contour>
  </outline>
</glyph>
<glyph name="brokenbar" format="1">
  <advance width="273"></advance>
  <unicode hex="00A6"></unicode>
  <outline>
    <contour>
      <point x="110" y="291" type="line"></point>
      <point x="168" y="291" type="line"></point>
      <point x="168" y="750" type="line"></point>
      <point x="110" y="750" type="line"></point>
    </contour>
    <contour>
      <point x="110" y="214" type="line"></point>
      <point x="110" y="-250" type="line"></point>
      <point x="168" y="-250" type="line"></point>
      <point x="168" y="214" type="line"></point>
    </contour>
  </outline>
</glyph>
<glyph name="section" format="1">
  <advance width="522"></advance>
  <unicode hex="00A7"></unicode>
  <outline>
    <contour>
      <point x="331" y="193" type="curve"></point>
      <point x="248" y="242"></point>
      <point x="128" y="260"></point>
      <point x="128" y="348" type="curve" smooth="yes"></point>
      <point x="128" y="389"></point>
      <point x="151" y="414"></point>
      <point x="189" y="435" type="curve"></point>
      <point x="272" y="387"></point>
      <point x="391" y="368"></point>
      <point x="391" y="278" type="curve" smooth="yes"></point>
      <point x="391" y="234"></point>
      <point x="370" y="211"></point>
    </contour>
    <contour>
      <point x="416" y="627" type="line"></point>
      <point x="378" y="658"></point>
      <point x="325" y="684"></point>
      <point x="262" y="684" type="curve" smooth="yes"></point>
      <point x="162" y="684"></point>
      <point x="110" y="623"></point>
      <point x="110" y="554" type="curve" smooth="yes"></point>
      <point x="110" y="519"></point>
      <point x="122" y="493"></point>
      <point x="142" y="472" type="curve"></point>
      <point x="92" y="444"></point>
      <point x="56" y="401"></point>
      <point x="56" y="343" type="curve" smooth="yes"></point>
      <point x="56" y="158"></point>
      <point x="332" y="183"></point>
      <point x="332" y="69" type="curve" smooth="yes"></point>
      <point x="332" y="31"></point>
      <point x="300" y="0"></point>
      <point x="247" y="0" type="curve" smooth="yes"></point>
      <point x="194" y="0"></point>
      <point x="157" y="20"></point>
      <point x="124" y="52" type="curve"></point>
      <point x="74" y="7" type="line"></point>
      <point x="115" y="-37"></point>
      <point x="176" y="-64"></point>
      <point x="247" y="-64" type="curve" smooth="yes"></point>
      <point x="341" y="-64"></point>
      <point x="408" y="-6"></point>
      <point x="408" y="73" type="curve" smooth="yes"></point>
      <point x="408" y="107"></point>
      <point x="397" y="133"></point>
      <point x="378" y="155" type="curve"></point>
      <point x="429" y="184"></point>
      <point x="463" y="221"></point>
      <point x="463" y="284" type="curve" smooth="yes"></point>
      <point x="463" y="468"></point>
      <point x="186" y="449"></point>
      <point x="186" y="557" type="curve" smooth="yes"></point>
      <point x="186" y="591"></point>
      <point x="209" y="620"></point>
      <point x="265" y="620" type="curve" smooth="yes"></point>
      <point x="309" y="620"></point>
      <point x="344" y="600"></point>
      <point x="376" y="574" type="curve"></point>
    </contour>
  </outline>
</glyph>
<glyph name="copyright" format="1">
  <advance width="771"></advance>
  <unicode hex="00A9"></unicode>
  <outline>
    <contour>
      <point x="50" y="323" type="curve" smooth="yes"></point>
      <point x="50" y="119"></point>
      <point x="199" y="-11"></point>
      <point x="373" y="-11" type="curve" smooth="yes"></point>
      <point x="547" y="-11"></point>
      <point x="696" y="119"></point>
      <point x="696" y="323" type="curve" smooth="yes"></point>
      <point x="696" y="526"></point>
      <point x="547" y="653"></point>
      <point x="373" y="653" type="curve" smooth="yes"></point>
      <point x="199" y="653"></point>
      <point x="50" y="526"></point>
    </contour>
    <contour>
      <point x="97" y="323" type="curve" smooth="yes"></point>
      <point x="97" y="497"></point>
      <point x="222" y="612"></point>
      <point x="373" y="612" type="curve" smooth="yes"></point>
      <point x="524" y="612"></point>
      <point x="649" y="497"></point>
      <point x="649" y="323" type="curve" smooth="yes"></point>
      <point x="649" y="148"></point>
      <point x="524" y="31"></point>
      <point x="373" y="31" type="curve" smooth="yes"></point>
      <point x="222" y="31"></point>
      <point x="97" y="148"></point>
    </contour>
    <contour>
      <point x="199" y="323" type="curve" smooth="yes"></point>
      <point x="199" y="199"></point>
      <point x="280" y="125"></point>
      <point x="381" y="125" type="curve" smooth="yes"></point>
      <point x="441" y="125"></point>
      <point x="479" y="150"></point>
      <point x="516" y="182" type="curve"></point>
      <point x="486" y="224" type="line"></point>
      <point x="457" y="199"></point>
      <point x="426" y="180"></point>
      <point x="384" y="180" type="curve" smooth="yes"></point>
      <point x="312" y="180"></point>
      <point x="265" y="235"></point>
      <point x="265" y="323" type="curve" smooth="yes"></point>
      <point x="265" y="401"></point>
      <point x="314" y="457"></point>
      <point x="387" y="457" type="curve" smooth="yes"></point>
      <point x="422" y="457"></point>
      <point x="447" y="442"></point>
      <point x="474" y="416" type="curve"></point>
      <point x="509" y="455" type="line"></point>
      <point x="477" y="487"></point>
      <point x="440" y="512"></point>
      <point x="384" y="512" type="curve" smooth="yes"></point>
      <point x="287" y="512"></point>
      <point x="199" y="439"></point>
    </contour>
  </outline>
</glyph>
<glyph name="guillemotleft" format="1">
  <advance width="447"></advance>
  <unicode hex="00AB"></unicode>
  <outline>
    <contour>
      <point x="197" y="66" type="line"></point>
      <point x="233" y="94" type="line"></point>
      <point x="115" y="252" type="line"></point>
      <point x="233" y="408" type="line"></point>
      <point x="197" y="438" type="line"></point>
      <point x="61" y="283" type="line"></point>
      <point x="61" y="221" type="line"></point>
    </contour>
    <contour>
      <point x="356" y="66" type="line"></point>
      <point x="391" y="94" type="line"></point>
      <point x="273" y="252" type="line"></point>
      <point x="391" y="408" type="line"></point>
      <point x="356" y="438" type="line"></point>
      <point x="219" y="283" type="line"></point>
      <point x="219" y="221" type="line"></point>
    </contour>
  </outline>
</glyph>
<glyph name="logicalnot" format="1">
  <advance width="572"></advance>
  <unicode hex="00AC"></unicode>
  <outline>
    <contour>
      <point x="56" y="299" type="line"></point>
      <point x="419" y="299" type="line"></point>
      <point x="419" y="104" type="line"></point>
      <point x="485" y="104" type="line"></point>
      <point x="485" y="361" type="line"></point>
      <point x="56" y="361" type="line"></point>
    </contour>
  </outline>
</glyph>
<glyph name="registered" format="1">
  <advance width="522"></advance>
  <unicode hex="00AE"></unicode>
  <outline>
    <contour>
      <point x="255" y="319" type="curve" smooth="yes"></point>
      <point x="359" y="319"></point>
      <point x="444" y="399"></point>
      <point x="444" y="516" type="curve" smooth="yes"></point>
      <point x="444" y="633"></point>
      <point x="359" y="713"></point>
      <point x="255" y="713" type="curve" smooth="yes"></point>
      <point x="152" y="713"></point>
      <point x="67" y="633"></point>
      <point x="67" y="516" type="curve" smooth="yes"></point>
      <point x="67" y="399"></point>
      <point x="152" y="319"></point>
    </contour>
    <contour>
      <point x="255" y="356" type="curve" smooth="yes"></point>
      <point x="171" y="356"></point>
      <point x="107" y="421"></point>
      <point x="107" y="516" type="curve" smooth="yes"></point>
      <point x="107" y="610"></point>
      <point x="171" y="677"></point>
      <point x="255" y="677" type="curve" smooth="yes"></point>
      <point x="339" y="677"></point>
      <point x="404" y="610"></point>
      <point x="404" y="516" type="curve" smooth="yes"></point>
      <point x="404" y="421"></point>
      <point x="339" y="356"></point>
    </contour>
    <contour>
      <point x="183" y="417" type="line"></point>
      <point x="224" y="417" type="line"></point>
      <point x="224" y="487" type="line"></point>
      <point x="265" y="487" type="line"></point>
      <point x="300" y="417" type="line"></point>
      <point x="346" y="417" type="line"></point>
      <point x="300" y="500" type="line"></point>
      <point x="322" y="508"></point>
      <point x="337" y="531"></point>
      <point x="337" y="555" type="curve" smooth="yes"></point>
      <point x="337" y="603"></point>
      <point x="301" y="620"></point>
      <point x="259" y="620" type="curve" smooth="yes"></point>
      <point x="183" y="620" type="line"></point>
    </contour>
    <contour>
      <point x="224" y="519" type="line"></point>
      <point x="224" y="586" type="line"></point>
      <point x="252" y="586" type="line" smooth="yes"></point>
      <point x="282" y="586"></point>
      <point x="293" y="573"></point>
      <point x="293" y="553" type="curve" smooth="yes"></point>
      <point x="293" y="531"></point>
      <point x="277" y="519"></point>
      <point x="250" y="519" type="curve" smooth="yes"></point>
    </contour>
  </outline>
</glyph>
<glyph name="degree" format="1">
  <advance width="373"></advance>
  <unicode hex="00B0"></unicode>
  <outline>
    <contour>
      <point x="186" y="429" type="curve" smooth="yes"></point>
      <point x="253" y="429"></point>
      <point x="311" y="479"></point>
      <point x="311" y="556" type="curve" smooth="yes"></point>
      <point x="311" y="635"></point>
      <point x="253" y="685"></point>
      <point x="186" y="685" type="curve" smooth="yes"></point>
      <point x="119" y="685"></point>
      <point x="61" y="635"></point>
      <point x="61" y="556" type="curve" smooth="yes"></point>
      <point x="61" y="479"></point>
      <point x="119" y="429"></point>
    </contour>
    <contour>
      <point x="186" y="475" type="curve" smooth="yes"></point>
      <point x="142" y="475"></point>
      <point x="111" y="509"></point>
      <point x="111" y="556" type="curve" smooth="yes"></point>
      <point x="111" y="605"></point>
      <point x="142" y="639"></point>
      <point x="186" y="639" type="curve" smooth="yes"></point>
      <point x="230" y="639"></point>
      <point x="261" y="605"></point>
      <point x="261" y="556" type="curve" smooth="yes"></point>
      <point x="261" y="509"></point>
      <point x="230" y="475"></point>
    </contour>
  </outline>
</glyph>
<glyph name="plusminus" format="1">
  <advance width="547"></advance>
  <unicode hex="00B1"></unicode>
  <outline>
    <contour>
      <point x="238" y="127" type="line"></point>
      <point x="303" y="127" type="line"></point>
      <point x="303" y="304" type="line"></point>
      <point x="485" y="304" type="line"></point>
      <point x="485" y="366" type="line"></point>
      <point x="303" y="366" type="line"></point>
      <point x="303" y="556" type="line"></point>
      <point x="238" y="556" type="line"></point>
      <point x="238" y="366" type="line"></point>
      <point x="56" y="366" type="line"></point>
      <point x="56" y="304" type="line"></point>
      <point x="238" y="304" type="line"></point>
    </contour>
    <contour>
      <point x="56" y="0" type="line"></point>
      <point x="485" y="0" type="line"></point>
      <point x="485" y="62" type="line"></point>
      <point x="56" y="62" type="line"></point>
    </contour>
  </outline>
</glyph>
<glyph name="two.sups" format="1">
  <advance width="422"></advance>
  <unicode hex="00B2"></unicode>
  <outline>
    <contour>
      <point x="82" y="440" type="line"></point>
      <point x="350" y="440" type="line"></point>
      <point x="350" y="495" type="line"></point>
      <point x="185" y="495" type="line"></point>
      <point x="268" y="580"></point>
      <point x="330" y="641"></point>
      <point x="330" y="716" type="curve" smooth="yes"></point>
      <point x="330" y="798"></point>
      <point x="278" y="842"></point>
      <point x="200" y="842" type="curve" smooth="yes"></point>
      <point x="147" y="842"></point>
      <point x="100" y="811"></point>
      <point x="70" y="766" type="curve"></point>
      <point x="108" y="731" type="line"></point>
      <point x="130" y="763"></point>
      <point x="159" y="788"></point>
      <point x="192" y="788" type="curve" smooth="yes"></point>
      <point x="238" y="788"></point>
      <point x="267" y="757"></point>
      <point x="267" y="706" type="curve" smooth="yes"></point>
      <point x="267" y="647"></point>
      <point x="203" y="586"></point>
      <point x="82" y="477" type="curve"></point>
    </contour>
  </outline>
</glyph>
<glyph name="three.sups" format="1">
  <advance width="398"></advance>
  <unicode hex="00B3"></unicode>
  <outline>
    <contour>
      <point x="59" y="504" type="line"></point>
      <point x="89" y="460"></point>
      <point x="141" y="428"></point>
      <point x="204" y="428" type="curve" smooth="yes"></point>
      <point x="280" y="428"></point>
      <point x="343" y="473"></point>
      <point x="343" y="545" type="curve" smooth="yes"></point>
      <point x="343" y="597"></point>
      <point x="303" y="630"></point>
      <point x="259" y="641" type="curve"></point>
      <point x="299" y="660"></point>
      <point x="327" y="691"></point>
      <point x="327" y="737" type="curve" smooth="yes"></point>
      <point x="327" y="803"></point>
      <point x="270" y="842"></point>
      <point x="203" y="842" type="curve" smooth="yes"></point>
      <point x="149" y="842"></point>
      <point x="109" y="817"></point>
      <point x="75" y="778" type="curve"></point>
      <point x="114" y="744" type="line"></point>
      <point x="136" y="771"></point>
      <point x="164" y="791"></point>
      <point x="193" y="791" type="curve" smooth="yes"></point>
      <point x="236" y="791"></point>
      <point x="264" y="766"></point>
      <point x="264" y="729" type="curve" smooth="yes"></point>
      <point x="264" y="689"></point>
      <point x="225" y="659"></point>
      <point x="158" y="659" type="curve"></point>
      <point x="158" y="618" type="line"></point>
      <point x="234" y="618"></point>
      <point x="279" y="594"></point>
      <point x="279" y="549" type="curve" smooth="yes"></point>
      <point x="279" y="504"></point>
      <point x="243" y="479"></point>
      <point x="201" y="479" type="curve" smooth="yes"></point>
      <point x="160" y="479"></point>
      <point x="126" y="501"></point>
      <point x="102" y="537" type="curve"></point>
    </contour>
  </outline>
</glyph>
<glyph name="acute" format="1">
  <advance width="373"></advance>
  <unicode hex="00B4"></unicode>
  <outline>
    <contour>
      <point x="297" y="714" type="line"></point>
      <point x="211" y="714" type="line"></point>
      <point x="121" y="573" type="line"></point>
      <point x="184" y="573" type="line"></point>
    </contour>
  </outline>
</glyph>
<glyph name="uni00B5" format="1">
  <advance width="547"></advance>
  <unicode hex="00B5"></unicode>
  <outline>
    <contour>
      <point x="76" y="-200" type="line"></point>
      <point x="158" y="-200" type="line"></point>
      <point x="158" y="-55" type="line"></point>
      <point x="153" y="35" type="line"></point>
      <point x="176" y="0"></point>
      <point x="206" y="-8"></point>
      <point x="245" y="-8" type="curve" smooth="yes"></point>
      <point x="301" y="-8"></point>
      <point x="347" y="24"></point>
      <point x="385" y="76" type="curve"></point>
      <point x="387" y="76" type="line"></point>
      <point x="394" y="0" type="line"></point>
      <point x="462" y="0" type="line"></point>
      <point x="462" y="486" type="line"></point>
      <point x="380" y="486" type="line"></point>
      <point x="380" y="141" type="line"></point>
      <point x="334" y="84"></point>
      <point x="300" y="59"></point>
      <point x="250" y="59" type="curve" smooth="yes"></point>
      <point x="186" y="59"></point>
      <point x="158" y="98"></point>
      <point x="158" y="189" type="curve" smooth="yes"></point>
      <point x="158" y="486" type="line"></point>
      <point x="76" y="486" type="line"></point>
    </contour>
  </outline>
</glyph>
<glyph name="paragraph" format="1">
  <advance width="547"></advance>
  <unicode hex="00B6"></unicode>
  <outline>
    <contour>
      <point x="383" y="-80" type="line"></point>
      <point x="467" y="-80" type="line"></point>
      <point x="467" y="656" type="line"></point>
      <point x="383" y="656" type="line"></point>
    </contour>
    <contour>
      <point x="296" y="226" type="curve" smooth="yes"></point>
      <point x="329" y="226" type="line"></point>
      <point x="329" y="656" type="line"></point>
      <point x="285" y="656" type="line" smooth="yes"></point>
      <point x="147" y="656"></point>
      <point x="44" y="600"></point>
      <point x="44" y="443" type="curve" smooth="yes"></point>
      <point x="44" y="292"></point>
      <point x="151" y="226"></point>
    </contour>
  </outline>
</glyph>
<glyph name="periodcentered" format="1">
  <advance width="323"></advance>
  <unicode hex="00B7"></unicode>
  <outline>
    <contour>
      <point x="99" y="321" type="curve" smooth="yes"></point>
      <point x="99" y="285"></point>
      <point x="126" y="259"></point>
      <point x="159" y="259" type="curve" smooth="yes"></point>
      <point x="191" y="259"></point>
      <point x="218" y="285"></point>
      <point x="218" y="321" type="curve" smooth="yes"></point>
      <point x="218" y="359"></point>
      <point x="191" y="385"></point>
      <point x="159" y="385" type="curve" smooth="yes"></point>
      <point x="126" y="385"></point>
      <point x="99" y="359"></point>
    </contour>
  </outline>
</glyph>
<glyph name="one.sups" format="1">
  <advance width="373"></advance>
  <unicode hex="00B9"></unicode>
  <outline>
    <contour>
      <point x="206" y="440" type="line"></point>
      <point x="270" y="440" type="line"></point>
      <point x="270" y="830" type="line"></point>
      <point x="218" y="830" type="line"></point>
      <point x="191" y="810"></point>
      <point x="165" y="798"></point>
      <point x="121" y="790" type="curve"></point>
      <point x="121" y="748" type="line"></point>
      <point x="206" y="748" type="line"></point>
    </contour>
  </outline>
</glyph>
<glyph name="ordmasculine" format="1">
  <advance width="447"></advance>
  <unicode hex="00BA"></unicode>
  <outline>
    <contour>
      <point x="228" y="258" type="curve" smooth="yes"></point>
      <point x="310" y="258"></point>
      <point x="380" y="321"></point>
      <point x="380" y="427" type="curve" smooth="yes"></point>
      <point x="380" y="534"></point>
      <point x="310" y="596"></point>
      <point x="228" y="596" type="curve" smooth="yes"></point>
      <point x="145" y="596"></point>
      <point x="76" y="534"></point>
      <point x="76" y="427" type="curve" smooth="yes"></point>
      <point x="76" y="321"></point>
      <point x="145" y="258"></point>
    </contour>
    <contour>
      <point x="228" y="309" type="curve" smooth="yes"></point>
      <point x="173" y="309"></point>
      <point x="139" y="357"></point>
      <point x="139" y="427" type="curve" smooth="yes"></point>
      <point x="139" y="498"></point>
      <point x="173" y="545"></point>
      <point x="228" y="545" type="curve" smooth="yes"></point>
      <point x="283" y="545"></point>
      <point x="316" y="498"></point>
      <point x="316" y="427" type="curve" smooth="yes"></point>
      <point x="316" y="357"></point>
      <point x="283" y="309"></point>
    </contour>
  </outline>
</glyph>
<glyph name="guillemotright" format="1">
  <advance width="447"></advance>
  <unicode hex="00BB"></unicode>
  <outline>
    <contour>
      <point x="59" y="94" type="line"></point>
      <point x="94" y="66" type="line"></point>
      <point x="231" y="221" type="line"></point>
      <point x="231" y="283" type="line"></point>
      <point x="94" y="438" type="line"></point>
      <point x="59" y="408" type="line"></point>
      <point x="177" y="252" type="line"></point>
    </contour>
    <contour>
      <point x="217" y="94" type="line"></point>
      <point x="253" y="66" type="line"></point>
      <point x="389" y="221" type="line"></point>
      <point x="389" y="283" type="line"></point>
      <point x="253" y="438" type="line"></point>
      <point x="217" y="408" type="line"></point>
      <point x="335" y="252" type="line"></point>
    </contour>
  </outline>
</glyph>
<glyph name="onequarter" format="1">
  <advance width="696"></advance>
  <unicode hex="00BC"></unicode>
  <outline>
    <contour>
      <point x="139" y="266" type="line"></point>
      <point x="139" y="656" type="line"></point>
      <point x="86" y="656" type="line"></point>
      <point x="59" y="636"></point>
      <point x="34" y="624"></point>
      <point x="-9" y="616" type="curve"></point>
      <point x="-9" y="574" type="line"></point>
      <point x="75" y="574" type="line"></point>
      <point x="75" y="266" type="line"></point>
    </contour>
    <contour>
      <point x="469" y="668" type="line"></point>
      <point x="107" y="-12" type="line"></point>
      <point x="163" y="-12" type="line"></point>
      <point x="525" y="668" type="line"></point>
    </contour>
    <contour>
      <point x="449" y="150" type="line"></point>
      <point x="511" y="248" type="line"></point>
      <point x="561" y="329" type="line"></point>
      <point x="565" y="329" type="line"></point>
      <point x="560" y="220" type="line"></point>
      <point x="560" y="150" type="line"></point>
    </contour>
    <contour>
      <point x="676" y="150" type="line"></point>
      <point x="618" y="150" type="line"></point>
      <point x="618" y="390" type="line"></point>
      <point x="546" y="390" type="line"></point>
      <point x="383" y="137" type="line"></point>
      <point x="383" y="104" type="line"></point>
      <point x="560" y="104" type="line"></point>
      <point x="560" y="0" type="line"></point>
      <point x="618" y="0" type="line"></point>
      <point x="618" y="104" type="line"></point>
      <point x="676" y="104" type="line"></point>
    </contour>
  </outline>
</glyph>
<glyph name="onehalf" format="1">
  <advance width="696"></advance>
  <unicode hex="00BD"></unicode>
  <outline>
    <contour>
      <point x="72" y="266" type="line"></point>
      <point x="136" y="266" type="line"></point>
      <point x="136" y="656" type="line"></point>
      <point x="83" y="656" type="line"></point>
      <point x="56" y="636"></point>
      <point x="31" y="624"></point>
      <point x="-12" y="616" type="curve"></point>
      <point x="-12" y="574" type="line"></point>
      <point x="72" y="574" type="line"></point>
    </contour>
    <contour>
      <point x="140" y="-12" type="line"></point>
      <point x="502" y="668" type="line"></point>
      <point x="446" y="668" type="line"></point>
      <point x="84" y="-12" type="line"></point>
    </contour>
    <contour>
      <point x="417" y="0" type="line"></point>
      <point x="685" y="0" type="line"></point>
      <point x="685" y="55" type="line"></point>
      <point x="520" y="55" type="line"></point>
      <point x="603" y="140"></point>
      <point x="665" y="201"></point>
      <point x="665" y="276" type="curve" smooth="yes"></point>
      <point x="665" y="358"></point>
      <point x="613" y="402"></point>
      <point x="535" y="402" type="curve" smooth="yes"></point>
      <point x="482" y="402"></point>
      <point x="435" y="371"></point>
      <point x="405" y="326" type="curve"></point>
      <point x="443" y="291" type="line"></point>
      <point x="465" y="323"></point>
      <point x="494" y="348"></point>
      <point x="527" y="348" type="curve" smooth="yes"></point>
      <point x="573" y="348"></point>
      <point x="602" y="317"></point>
      <point x="602" y="266" type="curve" smooth="yes"></point>
      <point x="602" y="207"></point>
      <point x="538" y="146"></point>
      <point x="417" y="37" type="curve"></point>
    </contour>
  </outline>
</glyph>
<glyph name="threequarters" format="1">
  <advance width="721"></advance>
  <unicode hex="00BE"></unicode>
  <outline>
    <contour>
      <point x="27" y="570" type="line"></point>
      <point x="50" y="598"></point>
      <point x="78" y="617"></point>
      <point x="107" y="617" type="curve" smooth="yes"></point>
      <point x="150" y="617"></point>
      <point x="177" y="593"></point>
      <point x="177" y="555" type="curve" smooth="yes"></point>
      <point x="177" y="515"></point>
      <point x="138" y="485"></point>
      <point x="71" y="485" type="curve"></point>
      <point x="71" y="444" type="line"></point>
      <point x="148" y="444"></point>
      <point x="192" y="420"></point>
      <point x="192" y="375" type="curve" smooth="yes"></point>
      <point x="192" y="331"></point>
      <point x="157" y="305"></point>
      <point x="114" y="305" type="curve" smooth="yes"></point>
      <point x="74" y="305"></point>
      <point x="39" y="327"></point>
      <point x="15" y="363" type="curve"></point>
      <point x="-26" y="331" type="line"></point>
      <point x="3" y="287"></point>
      <point x="54" y="254"></point>
      <point x="118" y="254" type="curve" smooth="yes"></point>
      <point x="194" y="254"></point>
      <point x="256" y="299"></point>
      <point x="256" y="371" type="curve" smooth="yes"></point>
      <point x="256" y="423"></point>
      <point x="217" y="456"></point>
      <point x="173" y="468" type="curve"></point>
      <point x="213" y="486"></point>
      <point x="241" y="517"></point>
      <point x="241" y="563" type="curve" smooth="yes"></point>
      <point x="241" y="629"></point>
      <point x="184" y="668"></point>
      <point x="116" y="668" type="curve" smooth="yes"></point>
      <point x="62" y="668"></point>
      <point x="22" y="643"></point>
      <point x="-10" y="604" type="curve"></point>
    </contour>
    <contour>
      <point x="519" y="668" type="line"></point>
      <point x="157" y="-12" type="line"></point>
      <point x="212" y="-12" type="line"></point>
      <point x="574" y="668" type="line"></point>
    </contour>
    <contour>
      <point x="476" y="150" type="line"></point>
      <point x="538" y="248" type="line"></point>
      <point x="588" y="329" type="line"></point>
      <point x="592" y="329" type="line"></point>
      <point x="587" y="220" type="line"></point>
      <point x="587" y="150" type="line"></point>
    </contour>
    <contour>
      <point x="703" y="150" type="line"></point>
      <point x="645" y="150" type="line"></point>
      <point x="645" y="390" type="line"></point>
      <point x="573" y="390" type="line"></point>
      <point x="409" y="137" type="line"></point>
      <point x="409" y="104" type="line"></point>
      <point x="587" y="104" type="line"></point>
      <point x="587" y="0" type="line"></point>
      <point x="645" y="0" type="line"></point>
      <point x="645" y="104" type="line"></point>
      <point x="703" y="104" type="line"></point>
    </contour>
  </outline>
</glyph>
<glyph name="questiondown" format="1">
  <advance width="422"></advance>
  <unicode hex="00BF"></unicode>
  <outline>
    <contour>
      <point x="270" y="288" type="curve"></point>
      <point x="197" y="288" type="line"></point>
      <point x="214" y="148"></point>
      <point x="53" y="95"></point>
      <point x="53" y="-36" type="curve" smooth="yes"></point>
      <point x="53" y="-135"></point>
      <point x="121" y="-196"></point>
      <point x="224" y="-196" type="curve" smooth="yes"></point>
      <point x="295" y="-196"></point>
      <point x="350" y="-160"></point>
      <point x="392" y="-113" type="curve"></point>
      <point x="344" y="-70" type="line"></point>
      <point x="313" y="-106"></point>
      <point x="274" y="-127"></point>
      <point x="230" y="-127" type="curve" smooth="yes"></point>
      <point x="165" y="-127"></point>
      <point x="133" y="-84"></point>
      <point x="133" y="-31" type="curve" smooth="yes"></point>
      <point x="133" y="75"></point>
      <point x="292" y="132"></point>
    </contour>
    <contour>
      <point x="291" y="436" type="curve" smooth="yes"></point>
      <point x="291" y="472"></point>
      <point x="264" y="498"></point>
      <point x="232" y="498" type="curve" smooth="yes"></point>
      <point x="199" y="498"></point>
      <point x="172" y="472"></point>
      <point x="172" y="436" type="curve" smooth="yes"></point>
      <point x="172" y="398"></point>
      <point x="199" y="372"></point>
      <point x="232" y="372" type="curve" smooth="yes"></point>
      <point x="264" y="372"></point>
      <point x="291" y="398"></point>
    </contour>
  </outline>
</glyph>
<glyph name="Aacute" format="1">
  <advance width="572"></advance>
  <unicode hex="00C1"></unicode>
  <outline>
    <contour>
      <point x="416" y="818" type="line"></point>
      <point x="322" y="818" type="line"></point>
      <point x="234" y="706" type="line"></point>
      <point x="303" y="706" type="line"></point>
    </contour>
    <contour>
      <point x="187" y="267" type="line"></point>
      <point x="218" y="367" type="line" smooth="yes"></point>
      <point x="242" y="440"></point>
      <point x="263" y="512"></point>
      <point x="283" y="588" type="curve"></point>
      <point x="287" y="588" type="line"></point>
      <point x="308" y="512"></point>
      <point x="329" y="440"></point>
      <point x="353" y="367" type="curve" smooth="yes"></point>
      <point x="384" y="267" type="line"></point>
    </contour>
    <contour>
      <point x="467" y="0" type="line"></point>
      <point x="556" y="0" type="line"></point>
      <point x="334" y="656" type="line"></point>
      <point x="240" y="656" type="line"></point>
      <point x="18" y="0" type="line"></point>
      <point x="103" y="0" type="line"></point>
      <point x="166" y="200" type="line"></point>
      <point x="405" y="200" type="line"></point>
    </contour>
  </outline>
</glyph>
<glyph name="Atilde" format="1">
  <advance width="572"></advance>
  <unicode hex="00C3"></unicode>
  <outline>
    <contour>
      <point x="384" y="819" type="line"></point>
      <point x="379" y="786"></point>
      <point x="364" y="767"></point>
      <point x="344" y="767" type="curve" smooth="yes"></point>
      <point x="307" y="767"></point>
      <point x="278" y="819"></point>
      <point x="225" y="819" type="curve" smooth="yes"></point>
      <point x="177" y="819"></point>
      <point x="146" y="773"></point>
      <point x="141" y="711" type="curve"></point>
      <point x="186" y="711" type="line"></point>
      <point x="192" y="745"></point>
      <point x="207" y="763"></point>
      <point x="227" y="763" type="curve" smooth="yes"></point>
      <point x="264" y="763"></point>
      <point x="293" y="711"></point>
      <point x="346" y="711" type="curve" smooth="yes"></point>
      <point x="393" y="711"></point>
      <point x="424" y="758"></point>
      <point x="430" y="819" type="curve"></point>
    </contour>
    <contour>
      <point x="187" y="267" type="line"></point>
      <point x="218" y="367" type="line" smooth="yes"></point>
      <point x="242" y="440"></point>
      <point x="263" y="512"></point>
      <point x="283" y="588" type="curve"></point>
      <point x="287" y="588" type="line"></point>
      <point x="308" y="512"></point>
      <point x="329" y="440"></point>
      <point x="353" y="367" type="curve" smooth="yes"></point>
      <point x="384" y="267" type="line"></point>
    </contour>
    <contour>
      <point x="467" y="0" type="line"></point>
      <point x="556" y="0" type="line"></point>
      <point x="334" y="656" type="line"></point>
      <point x="240" y="656" type="line"></point>
      <point x="18" y="0" type="line"></point>
      <point x="103" y="0" type="line"></point>
      <point x="166" y="200" type="line"></point>
      <point x="405" y="200" type="line"></point>
    </contour>
  </outline>
</glyph>
<glyph name="Aring" format="1">
  <advance width="572"></advance>
  <unicode hex="00C5"></unicode>
  <outline>
    <contour>
      <point x="285" y="838" type="curve" smooth="yes"></point>
      <point x="311" y="838"></point>
      <point x="332" y="818"></point>
      <point x="332" y="787" type="curve" smooth="yes"></point>
      <point x="332" y="754"></point>
      <point x="311" y="735"></point>
      <point x="285" y="735" type="curve" smooth="yes"></point>
      <point x="259" y="735"></point>
      <point x="237" y="754"></point>
      <point x="237" y="787" type="curve" smooth="yes"></point>
      <point x="237" y="818"></point>
      <point x="259" y="838"></point>
    </contour>
    <contour>
      <point x="285" y="699" type="curve" smooth="yes"></point>
      <point x="338" y="699"></point>
      <point x="379" y="733"></point>
      <point x="379" y="787" type="curve" smooth="yes"></point>
      <point x="379" y="840"></point>
      <point x="338" y="875"></point>
      <point x="285" y="875" type="curve" smooth="yes"></point>
      <point x="231" y="875"></point>
      <point x="192" y="840"></point>
      <point x="192" y="787" type="curve" smooth="yes"></point>
      <point x="192" y="733"></point>
      <point x="231" y="699"></point>
    </contour>
    <contour>
      <point x="187" y="267" type="line"></point>
      <point x="218" y="367" type="line" smooth="yes"></point>
      <point x="242" y="440"></point>
      <point x="263" y="512"></point>
      <point x="283" y="588" type="curve"></point>
      <point x="287" y="588" type="line"></point>
      <point x="308" y="512"></point>
      <point x="329" y="440"></point>
      <point x="353" y="367" type="curve" smooth="yes"></point>
      <point x="384" y="267" type="line"></point>
    </contour>
    <contour>
      <point x="467" y="0" type="line"></point>
      <point x="556" y="0" type="line"></point>
      <point x="334" y="656" type="line"></point>
      <point x="240" y="656" type="line"></point>
      <point x="18" y="0" type="line"></point>
      <point x="103" y="0" type="line"></point>
      <point x="166" y="200" type="line"></point>
      <point x="405" y="200" type="line"></point>
    </contour>
  </outline>
</glyph>
<glyph name="AE" format="1">
  <advance width="746"></advance>
  <unicode hex="00C6"></unicode>
  <outline>
    <contour>
      <point x="199" y="258" type="line"></point>
      <point x="260" y="376" type="line" smooth="yes"></point>
      <point x="296" y="447"></point>
      <point x="332" y="519"></point>
      <point x="367" y="590" type="curve"></point>
      <point x="371" y="590" type="line"></point>
      <point x="371" y="258" type="line"></point>
    </contour>
    <contour>
      <point x="455" y="71" type="line"></point>
      <point x="455" y="309" type="line"></point>
      <point x="687" y="309" type="line"></point>
      <point x="687" y="380" type="line"></point>
      <point x="455" y="380" type="line"></point>
      <point x="455" y="586" type="line"></point>
      <point x="733" y="586" type="line"></point>
      <point x="733" y="656" type="line"></point>
      <point x="322" y="656" type="line"></point>
      <point x="-21" y="0" type="line"></point>
      <point x="66" y="0" type="line"></point>
      <point x="165" y="191" type="line"></point>
      <point x="371" y="191" type="line"></point>
      <point x="371" y="0" type="line"></point>
      <point x="743" y="0" type="line"></point>
      <point x="743" y="71" type="line"></point>
    </contour>
  </outline>
</glyph>
<glyph name="Ccedilla" format="1">
  <advance width="597"></advance>
  <unicode hex="00C7"></unicode>
  <outline>
    <contour>
      <point x="496" y="134" type="line"></point>
      <point x="454" y="87"></point>
      <point x="408" y="61"></point>
      <point x="345" y="61" type="curve" smooth="yes"></point>
      <point x="221" y="61"></point>
      <point x="142" y="165"></point>
      <point x="142" y="330" type="curve" smooth="yes"></point>
      <point x="142" y="493"></point>
      <point x="224" y="595"></point>
      <point x="349" y="595" type="curve" smooth="yes"></point>
      <point x="404" y="595"></point>
      <point x="446" y="571"></point>
      <point x="480" y="534" type="curve"></point>
      <point x="527" y="587" type="line"></point>
      <point x="489" y="630"></point>
      <point x="427" y="668"></point>
      <point x="348" y="668" type="curve" smooth="yes"></point>
      <point x="180" y="668"></point>
      <point x="56" y="539"></point>
      <point x="56" y="328" type="curve" smooth="yes"></point>
      <point x="56" y="124"></point>
      <point x="167" y="0"></point>
      <point x="321" y="-11" type="curve"></point>
      <point x="288" y="-75" type="line"></point>
      <point x="329" y="-85"></point>
      <point x="351" y="-98"></point>
      <point x="351" y="-124" type="curve" smooth="yes"></point>
      <point x="351" y="-151"></point>
      <point x="315" y="-165"></point>
      <point x="262" y="-172" type="curve"></point>
      <point x="271" y="-213" type="line"></point>
      <point x="346" y="-206"></point>
      <point x="415" y="-179"></point>
      <point x="415" y="-121" type="curve" smooth="yes"></point>
      <point x="415" y="-80"></point>
      <point x="389" y="-61"></point>
      <point x="356" y="-50" type="curve"></point>
      <point x="375" y="-10" type="line"></point>
      <point x="443" y="-2"></point>
      <point x="498" y="31"></point>
      <point x="543" y="83" type="curve"></point>
    </contour>
  </outline>
</glyph>
<glyph name="Egrave" format="1">
  <advance width="522"></advance>
  <unicode hex="00C8"></unicode>
  <outline>
    <contour>
      <point x="73" y="0" type="line"></point>
      <point x="461" y="0" type="line"></point>
      <point x="461" y="71" type="line"></point>
      <point x="156" y="71" type="line"></point>
      <point x="156" y="309" type="line"></point>
      <point x="405" y="309" type="line"></point>
      <point x="405" y="380" type="line"></point>
      <point x="156" y="380" type="line"></point>
      <point x="156" y="586" type="line"></point>
      <point x="451" y="586" type="line"></point>
      <point x="451" y="656" type="line"></point>
      <point x="73" y="656" type="line"></point>
    </contour>
    <contour>
      <point x="249" y="706" type="line"></point>
      <point x="318" y="706" type="line"></point>
      <point x="230" y="818" type="line"></point>
      <point x="136" y="818" type="line"></point>
    </contour>
  </outline>
</glyph>
<glyph name="Ecircumflex" format="1">
  <advance width="522"></advance>
  <unicode hex="00CA"></unicode>
  <outline>
    <contour>
      <point x="73" y="0" type="line"></point>
      <point x="461" y="0" type="line"></point>
      <point x="461" y="71" type="line"></point>
      <point x="156" y="71" type="line"></point>
      <point x="156" y="309" type="line"></point>
      <point x="405" y="309" type="line"></point>
      <point x="405" y="380" type="line"></point>
      <point x="156" y="380" type="line"></point>
      <point x="156" y="586" type="line"></point>
      <point x="451" y="586" type="line"></point>
      <point x="451" y="656" type="line"></point>
      <point x="73" y="656" type="line"></point>
    </contour>
    <contour>
      <point x="198" y="706" type="line"></point>
      <point x="265" y="774" type="line"></point>
      <point x="269" y="774" type="line"></point>
      <point x="336" y="706" type="line"></point>
      <point x="403" y="706" type="line"></point>
      <point x="307" y="818" type="line"></point>
      <point x="228" y="818" type="line"></point>
      <point x="132" y="706" type="line"></point>
    </contour>
  </outline>
</glyph>
<glyph name="Edieresis" format="1">
  <advance width="522"></advance>
  <unicode hex="00CB"></unicode>
  <outline>
    <contour>
      <point x="73" y="0" type="line"></point>
      <point x="461" y="0" type="line"></point>
      <point x="461" y="71" type="line"></point>
      <point x="156" y="71" type="line"></point>
      <point x="156" y="309" type="line"></point>
      <point x="405" y="309" type="line"></point>
      <point x="405" y="380" type="line"></point>
      <point x="156" y="380" type="line"></point>
      <point x="156" y="586" type="line"></point>
      <point x="451" y="586" type="line"></point>
      <point x="451" y="656" type="line"></point>
      <point x="73" y="656" type="line"></point>
    </contour>
    <contour>
      <point x="181" y="715" type="curve" smooth="yes"></point>
      <point x="209" y="715"></point>
      <point x="230" y="736"></point>
      <point x="230" y="764" type="curve" smooth="yes"></point>
      <point x="230" y="793"></point>
      <point x="209" y="813"></point>
      <point x="181" y="813" type="curve" smooth="yes"></point>
      <point x="153" y="813"></point>
      <point x="132" y="793"></point>
      <point x="132" y="764" type="curve" smooth="yes"></point>
      <point x="132" y="736"></point>
      <point x="153" y="715"></point>
    </contour>
    <contour>
      <point x="354" y="715" type="curve" smooth="yes"></point>
      <point x="382" y="715"></point>
      <point x="403" y="736"></point>
      <point x="403" y="764" type="curve" smooth="yes"></point>
      <point x="403" y="793"></point>
      <point x="382" y="813"></point>
      <point x="354" y="813" type="curve" smooth="yes"></point>
      <point x="325" y="813"></point>
      <point x="305" y="793"></point>
      <point x="305" y="764" type="curve" smooth="yes"></point>
      <point x="305" y="736"></point>
      <point x="325" y="715"></point>
    </contour>
  </outline>
</glyph>
<glyph name="Igrave" format="1">
  <advance width="398"></advance>
  <unicode hex="00CC"></unicode>
  <outline>
    <contour>
      <point x="211" y="0" type="line"></point>
      <point x="294" y="0" type="line"></point>
      <point x="294" y="656" type="line"></point>
      <point x="211" y="656" type="line"></point>
    </contour>
    <contour>
      <point x="235" y="706" type="line"></point>
      <point x="304" y="706" type="line"></point>
      <point x="215" y="818" type="line"></point>
      <point x="121" y="818" type="line"></point>
    </contour>
  </outline>
</glyph>
<glyph name="Iacute" format="1">
  <advance width="323"></advance>
  <unicode hex="00CD"></unicode>
  <outline>
    <contour>
      <point x="97" y="0" type="line"></point>
      <point x="180" y="0" type="line"></point>
      <point x="180" y="656" type="line"></point>
      <point x="97" y="656" type="line"></point>
    </contour>
    <contour>
      <point x="269" y="818" type="line"></point>
      <point x="175" y="818" type="line"></point>
      <point x="87" y="706" type="line"></point>
      <point x="156" y="706" type="line"></point>
    </contour>
  </outline>
</glyph>
<glyph name="Icircumflex" format="1">
  <advance width="422"></advance>
  <unicode hex="00CE"></unicode>
  <outline>
    <contour>
      <point x="215" y="0" type="line"></point>
      <point x="298" y="0" type="line"></point>
      <point x="298" y="656" type="line"></point>
      <point x="215" y="656" type="line"></point>
    </contour>
    <contour>
      <point x="187" y="706" type="line"></point>
      <point x="254" y="774" type="line"></point>
      <point x="258" y="774" type="line"></point>
      <point x="325" y="706" type="line"></point>
      <point x="392" y="706" type="line"></point>
      <point x="296" y="818" type="line"></point>
      <point x="217" y="818" type="line"></point>
      <point x="121" y="706" type="line"></point>
    </contour>
  </outline>
</glyph>
<glyph name="Idieresis" format="1">
  <advance width="422"></advance>
  <unicode hex="00CF"></unicode>
  <outline>
    <contour>
      <point x="215" y="0" type="line"></point>
      <point x="298" y="0" type="line"></point>
      <point x="298" y="656" type="line"></point>
      <point x="215" y="656" type="line"></point>
    </contour>
    <contour>
      <point x="170" y="715" type="curve" smooth="yes"></point>
      <point x="198" y="715"></point>
      <point x="219" y="736"></point>
      <point x="219" y="764" type="curve" smooth="yes"></point>
      <point x="219" y="793"></point>
      <point x="198" y="813"></point>
      <point x="170" y="813" type="curve" smooth="yes"></point>
      <point x="142" y="813"></point>
      <point x="121" y="793"></point>
      <point x="121" y="764" type="curve" smooth="yes"></point>
      <point x="121" y="736"></point>
      <point x="142" y="715"></point>
    </contour>
    <contour>
      <point x="343" y="715" type="curve" smooth="yes"></point>
      <point x="371" y="715"></point>
      <point x="392" y="736"></point>
      <point x="392" y="764" type="curve" smooth="yes"></point>
      <point x="392" y="793"></point>
      <point x="371" y="813"></point>
      <point x="343" y="813" type="curve" smooth="yes"></point>
      <point x="314" y="813"></point>
      <point x="294" y="793"></point>
      <point x="294" y="764" type="curve" smooth="yes"></point>
      <point x="294" y="736"></point>
      <point x="314" y="715"></point>
    </contour>
  </outline>
</glyph>
<glyph name="Eth" format="1">
  <advance width="622"></advance>
  <unicode hex="00D0"></unicode>
  <outline>
    <contour>
      <point x="163" y="68" type="line"></point>
      <point x="163" y="321" type="line"></point>
      <point x="312" y="321" type="line"></point>
      <point x="312" y="368" type="line"></point>
      <point x="163" y="368" type="line"></point>
      <point x="163" y="588" type="line"></point>
      <point x="238" y="588" type="line" smooth="yes"></point>
      <point x="391" y="588"></point>
      <point x="468" y="496"></point>
      <point x="468" y="331" type="curve" smooth="yes"></point>
      <point x="468" y="165"></point>
      <point x="391" y="68"></point>
      <point x="238" y="68" type="curve" smooth="yes"></point>
    </contour>
    <contour>
      <point x="80" y="656" type="line"></point>
      <point x="80" y="368" type="line"></point>
      <point x="1" y="364" type="line"></point>
      <point x="1" y="321" type="line"></point>
      <point x="80" y="321" type="line"></point>
      <point x="80" y="0" type="line"></point>
      <point x="248" y="0" type="line" smooth="yes"></point>
      <point x="446" y="0"></point>
      <point x="554" y="122"></point>
      <point x="554" y="331" type="curve" smooth="yes"></point>
      <point x="554" y="539"></point>
      <point x="446" y="656"></point>
      <point x="244" y="656" type="curve" smooth="yes"></point>
    </contour>
  </outline>
</glyph>
<glyph name="Ntilde" format="1">
  <advance width="622"></advance>
  <unicode hex="00D1"></unicode>
  <outline>
    <contour>
      <point x="79" y="0" type="line"></point>
      <point x="158" y="0" type="line"></point>
      <point x="158" y="343" type="line" smooth="yes"></point>
      <point x="158" y="412"></point>
      <point x="152" y="482"></point>
      <point x="147" y="548" type="curve"></point>
      <point x="151" y="548" type="line"></point>
      <point x="222" y="413" type="line"></point>
      <point x="460" y="0" type="line"></point>
      <point x="546" y="0" type="line"></point>
      <point x="546" y="656" type="line"></point>
      <point x="467" y="656" type="line"></point>
      <point x="467" y="317" type="line" smooth="yes"></point>
      <point x="467" y="248"></point>
      <point x="473" y="174"></point>
      <point x="477" y="108" type="curve"></point>
      <point x="473" y="108" type="line"></point>
      <point x="402" y="244" type="line"></point>
      <point x="165" y="656" type="line"></point>
      <point x="79" y="656" type="line"></point>
    </contour>
    <contour>
      <point x="376" y="711" type="curve" smooth="yes"></point>
      <point x="423" y="711"></point>
      <point x="454" y="758"></point>
      <point x="460" y="819" type="curve"></point>
      <point x="415" y="819" type="line"></point>
      <point x="409" y="786"></point>
      <point x="394" y="767"></point>
      <point x="374" y="767" type="curve" smooth="yes"></point>
      <point x="337" y="767"></point>
      <point x="308" y="819"></point>
      <point x="255" y="819" type="curve" smooth="yes"></point>
      <point x="208" y="819"></point>
      <point x="177" y="773"></point>
      <point x="171" y="711" type="curve"></point>
      <point x="216" y="711" type="line"></point>
      <point x="222" y="745"></point>
      <point x="237" y="763"></point>
      <point x="257" y="763" type="curve" smooth="yes"></point>
      <point x="294" y="763"></point>
      <point x="323" y="711"></point>
    </contour>
  </outline>
</glyph>
<glyph name="Ograve" format="1">
  <advance width="671"></advance>
  <unicode hex="00D2"></unicode>
  <outline>
    <contour>
      <point x="333" y="-12" type="curve" smooth="yes"></point>
      <point x="498" y="-12"></point>
      <point x="614" y="120"></point>
      <point x="614" y="331" type="curve" smooth="yes"></point>
      <point x="614" y="540"></point>
      <point x="498" y="668"></point>
      <point x="333" y="668" type="curve" smooth="yes"></point>
      <point x="168" y="668"></point>
      <point x="53" y="541"></point>
      <point x="53" y="331" type="curve" smooth="yes"></point>
      <point x="53" y="120"></point>
      <point x="168" y="-12"></point>
    </contour>
    <contour>
      <point x="333" y="61" type="curve" smooth="yes"></point>
      <point x="216" y="61"></point>
      <point x="139" y="167"></point>
      <point x="139" y="331" type="curve" smooth="yes"></point>
      <point x="139" y="494"></point>
      <point x="216" y="595"></point>
      <point x="333" y="595" type="curve" smooth="yes"></point>
      <point x="450" y="595"></point>
      <point x="527" y="494"></point>
      <point x="527" y="331" type="curve" smooth="yes"></point>
      <point x="527" y="167"></point>
      <point x="450" y="61"></point>
    </contour>
    <contour>
      <point x="315" y="706" type="line"></point>
      <point x="384" y="706" type="line"></point>
      <point x="296" y="818" type="line"></point>
      <point x="202" y="818" type="line"></point>
    </contour>
  </outline>
</glyph>
<glyph name="Otilde" format="1">
  <advance width="671"></advance>
  <unicode hex="00D5"></unicode>
  <outline>
    <contour>
      <point x="333" y="-12" type="curve" smooth="yes"></point>
      <point x="498" y="-12"></point>
      <point x="614" y="120"></point>
      <point x="614" y="331" type="curve" smooth="yes"></point>
      <point x="614" y="540"></point>
      <point x="498" y="668"></point>
      <point x="333" y="668" type="curve" smooth="yes"></point>
      <point x="168" y="668"></point>
      <point x="53" y="541"></point>
      <point x="53" y="331" type="curve" smooth="yes"></point>
      <point x="53" y="120"></point>
      <point x="168" y="-12"></point>
    </contour>
    <contour>
      <point x="333" y="61" type="curve" smooth="yes"></point>
      <point x="216" y="61"></point>
      <point x="139" y="167"></point>
      <point x="139" y="331" type="curve" smooth="yes"></point>
      <point x="139" y="494"></point>
      <point x="216" y="595"></point>
      <point x="333" y="595" type="curve" smooth="yes"></point>
      <point x="450" y="595"></point>
      <point x="527" y="494"></point>
      <point x="527" y="331" type="curve" smooth="yes"></point>
      <point x="527" y="167"></point>
      <point x="450" y="61"></point>
    </contour>
    <contour>
      <point x="393" y="711" type="curve" smooth="yes"></point>
      <point x="441" y="711"></point>
      <point x="472" y="758"></point>
      <point x="478" y="819" type="curve"></point>
      <point x="432" y="819" type="line"></point>
      <point x="427" y="786"></point>
      <point x="411" y="767"></point>
      <point x="392" y="767" type="curve" smooth="yes"></point>
      <point x="355" y="767"></point>
      <point x="326" y="819"></point>
      <point x="273" y="819" type="curve" smooth="yes"></point>
      <point x="225" y="819"></point>
      <point x="194" y="773"></point>
      <point x="188" y="711" type="curve"></point>
      <point x="234" y="711" type="line"></point>
      <point x="240" y="745"></point>
      <point x="255" y="763"></point>
      <point x="275" y="763" type="curve" smooth="yes"></point>
      <point x="311" y="763"></point>
      <point x="341" y="711"></point>
    </contour>
  </outline>
</glyph>
<glyph name="Odieresis" format="1">
  <advance width="671"></advance>
  <unicode hex="00D6"></unicode>
  <outline>
    <contour>
      <point x="333" y="-12" type="curve" smooth="yes"></point>
      <point x="498" y="-12"></point>
      <point x="614" y="120"></point>
      <point x="614" y="331" type="curve" smooth="yes"></point>
      <point x="614" y="540"></point>
      <point x="498" y="668"></point>
      <point x="333" y="668" type="curve" smooth="yes"></point>
      <point x="168" y="668"></point>
      <point x="53" y="541"></point>
      <point x="53" y="331" type="curve" smooth="yes"></point>
      <point x="53" y="120"></point>
      <point x="168" y="-12"></point>
    </contour>
    <contour>
      <point x="333" y="61" type="curve" smooth="yes"></point>
      <point x="216" y="61"></point>
      <point x="139" y="167"></point>
      <point x="139" y="331" type="curve" smooth="yes"></point>
      <point x="139" y="494"></point>
      <point x="216" y="595"></point>
      <point x="333" y="595" type="curve" smooth="yes"></point>
      <point x="450" y="595"></point>
      <point x="527" y="494"></point>
      <point x="527" y="331" type="curve" smooth="yes"></point>
      <point x="527" y="167"></point>
      <point x="450" y="61"></point>
    </contour>
    <contour>
      <point x="247" y="715" type="curve" smooth="yes"></point>
      <point x="275" y="715"></point>
      <point x="296" y="736"></point>
      <point x="296" y="764" type="curve" smooth="yes"></point>
      <point x="296" y="793"></point>
      <point x="275" y="813"></point>
      <point x="247" y="813" type="curve" smooth="yes"></point>
      <point x="218" y="813"></point>
      <point x="198" y="793"></point>
      <point x="198" y="764" type="curve" smooth="yes"></point>
      <point x="198" y="736"></point>
      <point x="218" y="715"></point>
    </contour>
    <contour>
      <point x="419" y="715" type="curve" smooth="yes"></point>
      <point x="448" y="715"></point>
      <point x="468" y="736"></point>
      <point x="468" y="764" type="curve" smooth="yes"></point>
      <point x="468" y="793"></point>
      <point x="448" y="813"></point>
      <point x="419" y="813" type="curve" smooth="yes"></point>
      <point x="391" y="813"></point>
      <point x="370" y="793"></point>
      <point x="370" y="764" type="curve" smooth="yes"></point>
      <point x="370" y="736"></point>
      <point x="391" y="715"></point>
    </contour>
  </outline>
</glyph>
<glyph name="multiply" format="1">
  <advance width="497"></advance>
  <unicode hex="00D7"></unicode>
  <outline>
    <contour>
      <point x="88" y="126" type="line"></point>
      <point x="243" y="286" type="line"></point>
      <point x="397" y="126" type="line"></point>
      <point x="441" y="171" type="line"></point>
      <point x="286" y="330" type="line"></point>
      <point x="441" y="488" type="line"></point>
      <point x="397" y="533" type="line"></point>
      <point x="243" y="374" type="line"></point>
      <point x="88" y="533" type="line"></point>
      <point x="44" y="488" type="line"></point>
      <point x="199" y="330" type="line"></point>
      <point x="44" y="171" type="line"></point>
    </contour>
  </outline>
</glyph>
<glyph name="Oslash" format="1">
  <advance width="671"></advance>
  <unicode hex="00D8"></unicode>
  <outline>
    <contour>
      <point x="496" y="491" type="line"></point>
      <point x="517" y="449"></point>
      <point x="529" y="395"></point>
      <point x="529" y="331" type="curve" smooth="yes"></point>
      <point x="529" y="167"></point>
      <point x="452" y="61"></point>
      <point x="335" y="61" type="curve" smooth="yes"></point>
      <point x="284" y="61"></point>
      <point x="241" y="81"></point>
      <point x="208" y="116" type="curve"></point>
    </contour>
    <contour>
      <point x="174" y="167" type="line"></point>
      <point x="152" y="211"></point>
      <point x="140" y="266"></point>
      <point x="140" y="331" type="curve" smooth="yes"></point>
      <point x="140" y="494"></point>
      <point x="217" y="595"></point>
      <point x="335" y="595" type="curve" smooth="yes"></point>
      <point x="386" y="595"></point>
      <point x="429" y="576"></point>
      <point x="462" y="541" type="curve"></point>
    </contour>
    <contour>
      <point x="619" y="651" type="line"></point>
      <point x="573" y="686" type="line"></point>
      <point x="510" y="605" type="line"></point>
      <point x="464" y="646"></point>
      <point x="403" y="668"></point>
      <point x="335" y="668" type="curve" smooth="yes"></point>
      <point x="170" y="668"></point>
      <point x="54" y="541"></point>
      <point x="54" y="331" type="curve" smooth="yes"></point>
      <point x="54" y="235"></point>
      <point x="78" y="155"></point>
      <point x="120" y="97" type="curve"></point>
      <point x="50" y="6" type="line"></point>
      <point x="96" y="-30" type="line"></point>
      <point x="159" y="53" type="line"></point>
      <point x="206" y="11"></point>
      <point x="266" y="-12"></point>
      <point x="335" y="-12" type="curve" smooth="yes"></point>
      <point x="499" y="-12"></point>
      <point x="615" y="120"></point>
      <point x="615" y="331" type="curve" smooth="yes"></point>
      <point x="615" y="426"></point>
      <point x="591" y="504"></point>
      <point x="550" y="561" type="curve"></point>
    </contour>
  </outline>
</glyph>
<glyph name="Uacute" format="1">
  <advance width="622"></advance>
  <unicode hex="00DA"></unicode>
  <outline>
    <contour>
      <point x="67" y="271" type="line" smooth="yes"></point>
      <point x="67" y="60"></point>
      <point x="169" y="-12"></point>
      <point x="303" y="-12" type="curve" smooth="yes"></point>
      <point x="437" y="-12"></point>
      <point x="538" y="60"></point>
      <point x="538" y="271" type="curve" smooth="yes"></point>
      <point x="538" y="656" type="line"></point>
      <point x="458" y="656" type="line"></point>
      <point x="458" y="269" type="line" smooth="yes"></point>
      <point x="458" y="111"></point>
      <point x="390" y="61"></point>
      <point x="303" y="61" type="curve" smooth="yes"></point>
      <point x="217" y="61"></point>
      <point x="150" y="111"></point>
      <point x="150" y="269" type="curve" smooth="yes"></point>
      <point x="150" y="656" type="line"></point>
      <point x="67" y="656" type="line"></point>
    </contour>
    <contour>
      <point x="434" y="818" type="line"></point>
      <point x="340" y="818" type="line"></point>
      <point x="252" y="706" type="line"></point>
      <point x="321" y="706" type="line"></point>
    </contour>
  </outline>
</glyph>
<glyph name="Udieresis" format="1">
  <advance width="622"></advance>
  <unicode hex="00DC"></unicode>
  <outline>
    <contour>
      <point x="67" y="271" type="line" smooth="yes"></point>
      <point x="67" y="60"></point>
      <point x="169" y="-12"></point>
      <point x="303" y="-12" type="curve" smooth="yes"></point>
      <point x="437" y="-12"></point>
      <point x="538" y="60"></point>
      <point x="538" y="271" type="curve" smooth="yes"></point>
      <point x="538" y="656" type="line"></point>
      <point x="458" y="656" type="line"></point>
      <point x="458" y="269" type="line" smooth="yes"></point>
      <point x="458" y="111"></point>
      <point x="390" y="61"></point>
      <point x="303" y="61" type="curve" smooth="yes"></point>
      <point x="217" y="61"></point>
      <point x="150" y="111"></point>
      <point x="150" y="269" type="curve" smooth="yes"></point>
      <point x="150" y="656" type="line"></point>
      <point x="67" y="656" type="line"></point>
    </contour>
    <contour>
      <point x="216" y="715" type="curve" smooth="yes"></point>
      <point x="245" y="715"></point>
      <point x="265" y="736"></point>
      <point x="265" y="764" type="curve" smooth="yes"></point>
      <point x="265" y="793"></point>
      <point x="245" y="813"></point>
      <point x="216" y="813" type="curve" smooth="yes"></point>
      <point x="188" y="813"></point>
      <point x="167" y="793"></point>
      <point x="167" y="764" type="curve" smooth="yes"></point>
      <point x="167" y="736"></point>
      <point x="188" y="715"></point>
    </contour>
    <contour>
      <point x="389" y="715" type="curve" smooth="yes"></point>
      <point x="417" y="715"></point>
      <point x="438" y="736"></point>
      <point x="438" y="764" type="curve" smooth="yes"></point>
      <point x="438" y="793"></point>
      <point x="417" y="813"></point>
      <point x="389" y="813" type="curve" smooth="yes"></point>
      <point x="361" y="813"></point>
      <point x="340" y="793"></point>
      <point x="340" y="764" type="curve" smooth="yes"></point>
      <point x="340" y="736"></point>
      <point x="361" y="715"></point>
    </contour>
  </outline>
</glyph>
<glyph name="Thorn" format="1">
  <advance width="572"></advance>
  <unicode hex="00DE"></unicode>
  <outline>
    <contour>
      <point x="76" y="0" type="line"></point>
      <point x="159" y="0" type="line"></point>
      <point x="159" y="150" type="line"></point>
      <point x="277" y="150" type="line" smooth="yes"></point>
      <point x="421" y="150"></point>
      <point x="519" y="214"></point>
      <point x="519" y="353" type="curve" smooth="yes"></point>
      <point x="519" y="496"></point>
      <point x="422" y="546"></point>
      <point x="277" y="546" type="curve" smooth="yes"></point>
      <point x="159" y="546" type="line"></point>
      <point x="159" y="656" type="line"></point>
      <point x="76" y="656" type="line"></point>
    </contour>
    <contour>
      <point x="159" y="218" type="line"></point>
      <point x="159" y="478" type="line"></point>
      <point x="267" y="478" type="line" smooth="yes"></point>
      <point x="380" y="478"></point>
      <point x="436" y="447"></point>
      <point x="436" y="353" type="curve" smooth="yes"></point>
      <point x="436" y="259"></point>
      <point x="381" y="218"></point>
      <point x="267" y="218" type="curve" smooth="yes"></point>
    </contour>
  </outline>
</glyph>
<glyph name="germandbls" format="1">
  <advance width="597"></advance>
  <unicode hex="00DF"></unicode>
  <outline>
    <contour>
      <point x="79" y="0" type="line"></point>
      <point x="161" y="0" type="line"></point>
      <point x="161" y="500" type="line" smooth="yes"></point>
      <point x="161" y="603"></point>
      <point x="203" y="655"></point>
      <point x="274" y="655" type="curve" smooth="yes"></point>
      <point x="329" y="655"></point>
      <point x="357" y="618"></point>
      <point x="357" y="568" type="curve" smooth="yes"></point>
      <point x="357" y="484"></point>
      <point x="269" y="454"></point>
      <point x="269" y="364" type="curve" smooth="yes"></point>
      <point x="269" y="225"></point>
      <point x="466" y="248"></point>
      <point x="466" y="132" type="curve" smooth="yes"></point>
      <point x="466" y="90"></point>
      <point x="437" y="52"></point>
      <point x="382" y="52" type="curve" smooth="yes"></point>
      <point x="344" y="52"></point>
      <point x="311" y="66"></point>
      <point x="276" y="95" type="curve"></point>
      <point x="243" y="37" type="line"></point>
      <point x="284" y="7"></point>
      <point x="329" y="-12"></point>
      <point x="384" y="-12" type="curve" smooth="yes"></point>
      <point x="483" y="-12"></point>
      <point x="544" y="53"></point>
      <point x="544" y="137" type="curve" smooth="yes"></point>
      <point x="544" y="299"></point>
      <point x="347" y="277"></point>
      <point x="347" y="374" type="curve" smooth="yes"></point>
      <point x="347" y="443"></point>
      <point x="438" y="476"></point>
      <point x="438" y="576" type="curve" smooth="yes"></point>
      <point x="438" y="655"></point>
      <point x="380" y="722"></point>
      <point x="275" y="722" type="curve" smooth="yes"></point>
      <point x="150" y="722"></point>
      <point x="79" y="640"></point>
      <point x="79" y="515" type="curve" smooth="yes"></point>
    </contour>
  </outline>
</glyph>
<glyph name="agrave" format="1">
  <advance width="497"></advance>
  <unicode hex="00E0"></unicode>
  <outline>
    <contour>
      <point x="56" y="126" type="curve" smooth="yes"></point>
      <point x="56" y="39"></point>
      <point x="117" y="-12"></point>
      <point x="199" y="-12" type="curve" smooth="yes"></point>
      <point x="259" y="-12"></point>
      <point x="313" y="20"></point>
      <point x="360" y="58" type="curve"></point>
      <point x="362" y="58" type="line"></point>
      <point x="369" y="0" type="line"></point>
      <point x="437" y="0" type="line"></point>
      <point x="437" y="298" type="line" smooth="yes"></point>
      <point x="437" y="419"></point>
      <point x="387" y="498"></point>
      <point x="268" y="498" type="curve" smooth="yes"></point>
      <point x="190" y="498"></point>
      <point x="122" y="464"></point>
      <point x="77" y="435" type="curve"></point>
      <point x="110" y="378" type="line"></point>
      <point x="148" y="404"></point>
      <point x="198" y="430"></point>
      <point x="255" y="430" type="curve" smooth="yes"></point>
      <point x="334" y="430"></point>
      <point x="355" y="370"></point>
      <point x="355" y="308" type="curve"></point>
      <point x="148" y="285"></point>
      <point x="56" y="232"></point>
    </contour>
    <contour>
      <point x="137" y="132" type="curve" smooth="yes"></point>
      <point x="137" y="194"></point>
      <point x="192" y="234"></point>
      <point x="355" y="254" type="curve"></point>
      <point x="355" y="119" type="line"></point>
      <point x="308" y="77"></point>
      <point x="269" y="54"></point>
      <point x="222" y="54" type="curve" smooth="yes"></point>
      <point x="174" y="54"></point>
      <point x="137" y="77"></point>
    </contour>
    <contour>
      <point x="269" y="573" type="line"></point>
      <point x="332" y="573" type="line"></point>
      <point x="242" y="714" type="line"></point>
      <point x="156" y="714" type="line"></point>
    </contour>
  </outline>
</glyph>
<glyph name="atilde" format="1">
  <advance width="497"></advance>
  <unicode hex="00E3"></unicode>
  <outline>
    <contour>
      <point x="56" y="126" type="curve" smooth="yes"></point>
      <point x="56" y="39"></point>
      <point x="117" y="-12"></point>
      <point x="199" y="-12" type="curve" smooth="yes"></point>
      <point x="259" y="-12"></point>
      <point x="313" y="20"></point>
      <point x="360" y="58" type="curve"></point>
      <point x="362" y="58" type="line"></point>
      <point x="369" y="0" type="line"></point>
      <point x="437" y="0" type="line"></point>
      <point x="437" y="298" type="line" smooth="yes"></point>
      <point x="437" y="419"></point>
      <point x="387" y="498"></point>
      <point x="268" y="498" type="curve" smooth="yes"></point>
      <point x="190" y="498"></point>
      <point x="122" y="464"></point>
      <point x="77" y="435" type="curve"></point>
      <point x="110" y="378" type="line"></point>
      <point x="148" y="404"></point>
      <point x="198" y="430"></point>
      <point x="255" y="430" type="curve" smooth="yes"></point>
      <point x="334" y="430"></point>
      <point x="355" y="370"></point>
      <point x="355" y="308" type="curve"></point>
      <point x="148" y="285"></point>
      <point x="56" y="232"></point>
    </contour>
    <contour>
      <point x="137" y="132" type="curve" smooth="yes"></point>
      <point x="137" y="194"></point>
      <point x="192" y="234"></point>
      <point x="355" y="254" type="curve"></point>
      <point x="355" y="119" type="line"></point>
      <point x="308" y="77"></point>
      <point x="269" y="54"></point>
      <point x="222" y="54" type="curve" smooth="yes"></point>
      <point x="174" y="54"></point>
      <point x="137" y="77"></point>
    </contour>
    <contour>
      <point x="128" y="579" type="curve"></point>
      <point x="175" y="579" type="line"></point>
      <point x="180" y="613"></point>
      <point x="191" y="630"></point>
      <point x="211" y="630" type="curve" smooth="yes"></point>
      <point x="245" y="630"></point>
      <point x="275" y="579"></point>
      <point x="325" y="579" type="curve" smooth="yes"></point>
      <point x="374" y="579"></point>
      <point x="401" y="625"></point>
      <point x="407" y="685" type="curve"></point>
      <point x="360" y="685" type="line"></point>
      <point x="354" y="651"></point>
      <point x="343" y="634"></point>
      <point x="323" y="634" type="curve" smooth="yes"></point>
      <point x="291" y="634"></point>
      <point x="260" y="685"></point>
      <point x="210" y="685" type="curve" smooth="yes"></point>
      <point x="160" y="685"></point>
      <point x="134" y="639"></point>
    </contour>
  </outline>
</glyph>
<glyph name="ae" format="1">
  <advance width="746"></advance>
  <unicode hex="00E6"></unicode>
  <outline>
    <contour>
      <point x="108" y="132" type="curve" smooth="yes"></point>
      <point x="108" y="194"></point>
      <point x="167" y="234"></point>
      <point x="321" y="254" type="curve"></point>
      <point x="321" y="229" type="line" smooth="yes"></point>
      <point x="322" y="192"></point>
      <point x="329" y="154"></point>
      <point x="340" y="129" type="curve"></point>
      <point x="296" y="81"></point>
      <point x="238" y="54"></point>
      <point x="193" y="54" type="curve" smooth="yes"></point>
      <point x="145" y="54"></point>
      <point x="108" y="77"></point>
    </contour>
    <contour>
      <point x="81" y="378" type="line"></point>
      <point x="119" y="404"></point>
      <point x="169" y="430"></point>
      <point x="222" y="430" type="curve" smooth="yes"></point>
      <point x="302" y="430"></point>
      <point x="321" y="370"></point>
      <point x="321" y="308" type="curve"></point>
      <point x="119" y="285"></point>
      <point x="27" y="232"></point>
      <point x="27" y="126" type="curve" smooth="yes"></point>
      <point x="27" y="39"></point>
      <point x="88" y="-12"></point>
      <point x="170" y="-12" type="curve" smooth="yes"></point>
      <point x="232" y="-12"></point>
      <point x="302" y="20"></point>
      <point x="368" y="79" type="curve"></point>
      <point x="405" y="31"></point>
      <point x="458" y="-12"></point>
      <point x="539" y="-12" type="curve" smooth="yes"></point>
      <point x="605" y="-12"></point>
      <point x="655" y="11"></point>
      <point x="697" y="38" type="curve"></point>
      <point x="667" y="95" type="line"></point>
      <point x="631" y="72"></point>
      <point x="596" y="55"></point>
      <point x="549" y="55" type="curve" smooth="yes"></point>
      <point x="466" y="55"></point>
      <point x="402" y="122"></point>
      <point x="398" y="223" type="curve"></point>
      <point x="713" y="223" type="line"></point>
      <point x="715" y="235"></point>
      <point x="716" y="251"></point>
      <point x="716" y="269" type="curve" smooth="yes"></point>
      <point x="716" y="408"></point>
      <point x="650" y="498"></point>
      <point x="531" y="498" type="curve" smooth="yes"></point>
      <point x="465" y="498"></point>
      <point x="409" y="458"></point>
      <point x="371" y="395" type="curve"></point>
      <point x="351" y="458"></point>
      <point x="304" y="498"></point>
      <point x="232" y="498" type="curve" smooth="yes"></point>
      <point x="160" y="498"></point>
      <point x="93" y="464"></point>
      <point x="48" y="435" type="curve"></point>
    </contour>
    <contour>
      <point x="398" y="278" type="line"></point>
      <point x="407" y="373"></point>
      <point x="462" y="433"></point>
      <point x="529" y="433" type="curve" smooth="yes"></point>
      <point x="603" y="433"></point>
      <point x="644" y="378"></point>
      <point x="644" y="278" type="curve"></point>
    </contour>
  </outline>
</glyph>
<glyph name="ccedilla" format="1">
  <advance width="497"></advance>
  <unicode hex="00E7"></unicode>
  <outline>
    <contour>
      <point x="310" y="-10" type="line"></point>
      <point x="358" y="-5"></point>
      <point x="405" y="18"></point>
      <point x="442" y="51" type="curve"></point>
      <point x="405" y="105" type="line"></point>
      <point x="376" y="79"></point>
      <point x="337" y="56"></point>
      <point x="291" y="56" type="curve" smooth="yes"></point>
      <point x="202" y="56"></point>
      <point x="141" y="131"></point>
      <point x="141" y="242" type="curve" smooth="yes"></point>
      <point x="141" y="354"></point>
      <point x="205" y="430"></point>
      <point x="293" y="430" type="curve" smooth="yes"></point>
      <point x="332" y="430"></point>
      <point x="362" y="412"></point>
      <point x="391" y="387" type="curve"></point>
      <point x="432" y="440" type="line"></point>
      <point x="399" y="471"></point>
      <point x="354" y="498"></point>
      <point x="290" y="498" type="curve" smooth="yes"></point>
      <point x="165" y="498"></point>
      <point x="56" y="405"></point>
      <point x="56" y="242" type="curve" smooth="yes"></point>
      <point x="56" y="93"></point>
      <point x="141" y="3"></point>
      <point x="255" y="-10" type="curve"></point>
      <point x="222" y="-75" type="line"></point>
      <point x="263" y="-85"></point>
      <point x="286" y="-98"></point>
      <point x="286" y="-124" type="curve" smooth="yes"></point>
      <point x="286" y="-151"></point>
      <point x="249" y="-165"></point>
      <point x="197" y="-172" type="curve"></point>
      <point x="205" y="-213" type="line"></point>
      <point x="281" y="-206"></point>
      <point x="350" y="-179"></point>
      <point x="350" y="-121" type="curve" smooth="yes"></point>
      <point x="350" y="-80"></point>
      <point x="323" y="-61"></point>
      <point x="291" y="-50" type="curve"></point>
    </contour>
  </outline>
</glyph>
<glyph name="igrave" format="1">
  <advance width="373"></advance>
  <unicode hex="00EC"></unicode>
  <outline>
    <contour>
      <point x="191" y="0" type="line"></point>
      <point x="273" y="0" type="line"></point>
      <point x="273" y="486" type="line"></point>
      <point x="191" y="486" type="line"></point>
    </contour>
    <contour>
      <point x="234" y="573" type="line"></point>
      <point x="297" y="573" type="line"></point>
      <point x="207" y="714" type="line"></point>
      <point x="121" y="714" type="line"></point>
    </contour>
  </outline>
</glyph>
<glyph name="iacute" format="1">
  <advance width="323"></advance>
  <unicode hex="00ED"></unicode>
  <outline>
    <contour>
      <point x="105" y="0" type="line"></point>
      <point x="187" y="0" type="line"></point>
      <point x="187" y="486" type="line"></point>
      <point x="105" y="486" type="line"></point>
    </contour>
    <contour>
      <point x="257" y="714" type="line"></point>
      <point x="171" y="714" type="line"></point>
      <point x="81" y="573" type="line"></point>
      <point x="144" y="573" type="line"></point>
    </contour>
  </outline>
</glyph>
<glyph name="icircumflex" format="1">
  <advance width="422"></advance>
  <unicode hex="00EE"></unicode>
  <outline>
    <contour>
      <point x="208" y="0" type="line"></point>
      <point x="290" y="0" type="line"></point>
      <point x="290" y="486" type="line"></point>
      <point x="208" y="486" type="line"></point>
    </contour>
    <contour>
      <point x="121" y="573" type="line"></point>
      <point x="180" y="573" type="line"></point>
      <point x="247" y="664" type="line"></point>
      <point x="251" y="664" type="line"></point>
      <point x="318" y="573" type="line"></point>
      <point x="378" y="573" type="line"></point>
      <point x="283" y="714" type="line"></point>
      <point x="215" y="714" type="line"></point>
    </contour>
  </outline>
</glyph>
<glyph name="eth" format="1">
  <advance width="547"></advance>
  <unicode hex="00F0"></unicode>
  <outline>
    <contour>
      <point x="274" y="56" type="curve" smooth="yes"></point>
      <point x="198" y="56"></point>
      <point x="134" y="122"></point>
      <point x="134" y="222" type="curve" smooth="yes"></point>
      <point x="134" y="314"></point>
      <point x="185" y="383"></point>
      <point x="274" y="383" type="curve" smooth="yes"></point>
      <point x="319" y="383"></point>
      <point x="363" y="368"></point>
      <point x="407" y="309" type="curve"></point>
      <point x="408" y="292"></point>
      <point x="409" y="273"></point>
      <point x="409" y="254" type="curve" smooth="yes"></point>
      <point x="409" y="137"></point>
      <point x="364" y="56"></point>
    </contour>
    <contour>
      <point x="481" y="671" type="line"></point>
      <point x="457" y="712" type="line"></point>
      <point x="315" y="639" type="line"></point>
      <point x="272" y="675"></point>
      <point x="225" y="704"></point>
      <point x="177" y="730" type="curve"></point>
      <point x="139" y="678" type="line"></point>
      <point x="180" y="656"></point>
      <point x="217" y="632"></point>
      <point x="251" y="606" type="curve"></point>
      <point x="124" y="541" type="line"></point>
      <point x="148" y="500" type="line"></point>
      <point x="289" y="573" type="line"></point>
      <point x="340" y="523"></point>
      <point x="378" y="463"></point>
      <point x="396" y="381" type="curve"></point>
      <point x="362" y="426"></point>
      <point x="313" y="447"></point>
      <point x="262" y="447" type="curve" smooth="yes"></point>
      <point x="146" y="447"></point>
      <point x="56" y="358"></point>
      <point x="56" y="222" type="curve" smooth="yes"></point>
      <point x="56" y="77"></point>
      <point x="159" y="-12"></point>
      <point x="272" y="-12" type="curve" smooth="yes"></point>
      <point x="402" y="-12"></point>
      <point x="488" y="97"></point>
      <point x="488" y="257" type="curve" smooth="yes"></point>
      <point x="488" y="415"></point>
      <point x="432" y="524"></point>
      <point x="352" y="605" type="curve"></point>
    </contour>
  </outline>
</glyph>
<glyph name="ntilde" format="1">
  <advance width="547"></advance>
  <unicode hex="00F1"></unicode>
  <outline>
    <contour>
      <point x="79" y="0" type="line"></point>
      <point x="161" y="0" type="line"></point>
      <point x="161" y="352" type="line"></point>
      <point x="210" y="401"></point>
      <point x="244" y="427"></point>
      <point x="294" y="427" type="curve" smooth="yes"></point>
      <point x="358" y="427"></point>
      <point x="386" y="388"></point>
      <point x="386" y="297" type="curve" smooth="yes"></point>
      <point x="386" y="0" type="line"></point>
      <point x="468" y="0" type="line"></point>
      <point x="468" y="308" type="line" smooth="yes"></point>
      <point x="468" y="432"></point>
      <point x="422" y="498"></point>
      <point x="320" y="498" type="curve" smooth="yes"></point>
      <point x="253" y="498"></point>
      <point x="203" y="462"></point>
      <point x="157" y="416" type="curve"></point>
      <point x="154" y="416" type="line"></point>
      <point x="147" y="486" type="line"></point>
      <point x="79" y="486" type="line"></point>
    </contour>
    <contour>
      <point x="150" y="579" type="curve"></point>
      <point x="196" y="579" type="line"></point>
      <point x="202" y="613"></point>
      <point x="213" y="630"></point>
      <point x="233" y="630" type="curve" smooth="yes"></point>
      <point x="267" y="630"></point>
      <point x="296" y="579"></point>
      <point x="347" y="579" type="curve" smooth="yes"></point>
      <point x="396" y="579"></point>
      <point x="423" y="625"></point>
      <point x="428" y="685" type="curve"></point>
      <point x="381" y="685" type="line"></point>
      <point x="376" y="651"></point>
      <point x="365" y="634"></point>
      <point x="345" y="634" type="curve" smooth="yes"></point>
      <point x="312" y="634"></point>
      <point x="281" y="685"></point>
      <point x="231" y="685" type="curve" smooth="yes"></point>
      <point x="182" y="685"></point>
      <point x="155" y="639"></point>
    </contour>
  </outline>
</glyph>
<glyph name="oacute" format="1">
  <advance width="547"></advance>
  <unicode hex="00F3"></unicode>
  <outline>
    <contour>
      <point x="50" y="242" type="curve" smooth="yes"></point>
      <point x="50" y="81"></point>
      <point x="156" y="-12"></point>
      <point x="275" y="-12" type="curve" smooth="yes"></point>
      <point x="394" y="-12"></point>
      <point x="500" y="81"></point>
      <point x="500" y="242" type="curve" smooth="yes"></point>
      <point x="500" y="405"></point>
      <point x="394" y="498"></point>
      <point x="275" y="498" type="curve" smooth="yes"></point>
      <point x="156" y="498"></point>
      <point x="50" y="405"></point>
    </contour>
    <contour>
      <point x="135" y="242" type="curve" smooth="yes"></point>
      <point x="135" y="354"></point>
      <point x="192" y="430"></point>
      <point x="275" y="430" type="curve" smooth="yes"></point>
      <point x="359" y="430"></point>
      <point x="415" y="354"></point>
      <point x="415" y="242" type="curve" smooth="yes"></point>
      <point x="415" y="131"></point>
      <point x="359" y="56"></point>
      <point x="275" y="56" type="curve" smooth="yes"></point>
      <point x="192" y="56"></point>
      <point x="135" y="131"></point>
    </contour>
    <contour>
      <point x="386" y="714" type="line"></point>
      <point x="300" y="714" type="line"></point>
      <point x="210" y="573" type="line"></point>
      <point x="273" y="573" type="line"></point>
    </contour>
  </outline>
</glyph>
<glyph name="otilde" format="1">
  <advance width="547"></advance>
  <unicode hex="00F5"></unicode>
  <outline>
    <contour>
      <point x="50" y="242" type="curve" smooth="yes"></point>
      <point x="50" y="81"></point>
      <point x="156" y="-12"></point>
      <point x="275" y="-12" type="curve" smooth="yes"></point>
      <point x="394" y="-12"></point>
      <point x="500" y="81"></point>
      <point x="500" y="242" type="curve" smooth="yes"></point>
      <point x="500" y="405"></point>
      <point x="394" y="498"></point>
      <point x="275" y="498" type="curve" smooth="yes"></point>
      <point x="156" y="498"></point>
      <point x="50" y="405"></point>
    </contour>
    <contour>
      <point x="135" y="242" type="curve" smooth="yes"></point>
      <point x="135" y="354"></point>
      <point x="192" y="430"></point>
      <point x="275" y="430" type="curve" smooth="yes"></point>
      <point x="359" y="430"></point>
      <point x="415" y="354"></point>
      <point x="415" y="242" type="curve" smooth="yes"></point>
      <point x="415" y="131"></point>
      <point x="359" y="56"></point>
      <point x="275" y="56" type="curve" smooth="yes"></point>
      <point x="192" y="56"></point>
      <point x="135" y="131"></point>
    </contour>
    <contour>
      <point x="136" y="579" type="curve"></point>
      <point x="183" y="579" type="line"></point>
      <point x="188" y="613"></point>
      <point x="199" y="630"></point>
      <point x="219" y="630" type="curve" smooth="yes"></point>
      <point x="253" y="630"></point>
      <point x="283" y="579"></point>
      <point x="333" y="579" type="curve" smooth="yes"></point>
      <point x="382" y="579"></point>
      <point x="409" y="625"></point>
      <point x="414" y="685" type="curve"></point>
      <point x="368" y="685" type="line"></point>
      <point x="362" y="651"></point>
      <point x="351" y="634"></point>
      <point x="331" y="634" type="curve" smooth="yes"></point>
      <point x="299" y="634"></point>
      <point x="268" y="685"></point>
      <point x="217" y="685" type="curve" smooth="yes"></point>
      <point x="168" y="685"></point>
      <point x="141" y="639"></point>
    </contour>
  </outline>
</glyph>
<glyph name="odieresis" format="1">
  <advance width="547"></advance>
  <unicode hex="00F6"></unicode>
  <outline>
    <contour>
      <point x="50" y="242" type="curve" smooth="yes"></point>
      <point x="50" y="81"></point>
      <point x="156" y="-12"></point>
      <point x="275" y="-12" type="curve" smooth="yes"></point>
      <point x="394" y="-12"></point>
      <point x="500" y="81"></point>
      <point x="500" y="242" type="curve" smooth="yes"></point>
      <point x="500" y="405"></point>
      <point x="394" y="498"></point>
      <point x="275" y="498" type="curve" smooth="yes"></point>
      <point x="156" y="498"></point>
      <point x="50" y="405"></point>
    </contour>
    <contour>
      <point x="135" y="242" type="curve" smooth="yes"></point>
      <point x="135" y="354"></point>
      <point x="192" y="430"></point>
      <point x="275" y="430" type="curve" smooth="yes"></point>
      <point x="359" y="430"></point>
      <point x="415" y="354"></point>
      <point x="415" y="242" type="curve" smooth="yes"></point>
      <point x="415" y="131"></point>
      <point x="359" y="56"></point>
      <point x="275" y="56" type="curve" smooth="yes"></point>
      <point x="192" y="56"></point>
      <point x="135" y="131"></point>
    </contour>
    <contour>
      <point x="189" y="588" type="curve" smooth="yes"></point>
      <point x="217" y="588"></point>
      <point x="238" y="609"></point>
      <point x="238" y="637" type="curve" smooth="yes"></point>
      <point x="238" y="665"></point>
      <point x="217" y="686"></point>
      <point x="189" y="686" type="curve" smooth="yes"></point>
      <point x="161" y="686"></point>
      <point x="140" y="665"></point>
      <point x="140" y="637" type="curve" smooth="yes"></point>
      <point x="140" y="609"></point>
      <point x="161" y="588"></point>
    </contour>
    <contour>
      <point x="361" y="588" type="curve" smooth="yes"></point>
      <point x="390" y="588"></point>
      <point x="410" y="609"></point>
      <point x="410" y="637" type="curve" smooth="yes"></point>
      <point x="410" y="665"></point>
      <point x="390" y="686"></point>
      <point x="361" y="686" type="curve" smooth="yes"></point>
      <point x="333" y="686"></point>
      <point x="313" y="665"></point>
      <point x="313" y="637" type="curve" smooth="yes"></point>
      <point x="313" y="609"></point>
      <point x="333" y="588"></point>
    </contour>
  </outline>
</glyph>
<glyph name="divide" format="1">
  <advance width="547"></advance>
  <unicode hex="00F7"></unicode>
  <outline>
    <contour>
      <point x="271" y="456" type="curve" smooth="yes"></point>
      <point x="301" y="456"></point>
      <point x="325" y="478"></point>
      <point x="325" y="510" type="curve" smooth="yes"></point>
      <point x="325" y="541"></point>
      <point x="301" y="563"></point>
      <point x="271" y="563" type="curve" smooth="yes"></point>
      <point x="240" y="563"></point>
      <point x="216" y="541"></point>
      <point x="216" y="510" type="curve" smooth="yes"></point>
      <point x="216" y="478"></point>
      <point x="240" y="456"></point>
    </contour>
    <contour>
      <point x="216" y="150" type="curve" smooth="yes"></point>
      <point x="216" y="118"></point>
      <point x="240" y="96"></point>
      <point x="271" y="96" type="curve" smooth="yes"></point>
      <point x="301" y="96"></point>
      <point x="325" y="118"></point>
      <point x="325" y="150" type="curve" smooth="yes"></point>
      <point x="325" y="181"></point>
      <point x="301" y="203"></point>
      <point x="271" y="203" type="curve" smooth="yes"></point>
      <point x="240" y="203"></point>
      <point x="216" y="181"></point>
    </contour>
    <contour>
      <point x="56" y="299" type="line"></point>
      <point x="485" y="299" type="line"></point>
      <point x="485" y="361" type="line"></point>
      <point x="56" y="361" type="line"></point>
    </contour>
  </outline>
</glyph>
<glyph name="oslash" format="1">
  <advance width="572"></advance>
  <unicode hex="00F8"></unicode>
  <outline>
    <contour>
      <point x="398" y="353" type="line"></point>
      <point x="414" y="322"></point>
      <point x="422" y="284"></point>
      <point x="422" y="239" type="curve" smooth="yes"></point>
      <point x="422" y="129"></point>
      <point x="362" y="54"></point>
      <point x="278" y="54" type="curve" smooth="yes"></point>
      <point x="242" y="54"></point>
      <point x="210" y="68"></point>
      <point x="185" y="93" type="curve"></point>
    </contour>
    <contour>
      <point x="157" y="133" type="line"></point>
      <point x="142" y="163"></point>
      <point x="134" y="201"></point>
      <point x="134" y="246" type="curve" smooth="yes"></point>
      <point x="134" y="356"></point>
      <point x="195" y="432"></point>
      <point x="278" y="432" type="curve" smooth="yes"></point>
      <point x="315" y="432"></point>
      <point x="347" y="418"></point>
      <point x="371" y="392" type="curve"></point>
    </contour>
    <contour>
      <point x="503" y="480" type="line"></point>
      <point x="467" y="509" type="line"></point>
      <point x="417" y="448" type="line"></point>
      <point x="378" y="481"></point>
      <point x="329" y="498"></point>
      <point x="278" y="498" type="curve" smooth="yes"></point>
      <point x="159" y="498"></point>
      <point x="53" y="405"></point>
      <point x="53" y="242" type="curve" smooth="yes"></point>
      <point x="53" y="171"></point>
      <point x="74" y="114"></point>
      <point x="107" y="71" type="curve"></point>
      <point x="53" y="6" type="line"></point>
      <point x="90" y="-23" type="line"></point>
      <point x="139" y="37" type="line"></point>
      <point x="178" y="5"></point>
      <point x="227" y="-12"></point>
      <point x="278" y="-12" type="curve" smooth="yes"></point>
      <point x="397" y="-12"></point>
      <point x="503" y="81"></point>
      <point x="503" y="242" type="curve" smooth="yes"></point>
      <point x="503" y="314"></point>
      <point x="482" y="372"></point>
      <point x="449" y="415" type="curve"></point>
    </contour>
  </outline>
</glyph>
<glyph name="thorn" format="1">
  <advance width="547"></advance>
  <unicode hex="00FE"></unicode>
  <outline>
    <contour>
      <point x="155" y="-41" type="line"></point>
      <point x="154" y="42" type="line"></point>
      <point x="198" y="8"></point>
      <point x="241" y="-12"></point>
      <point x="288" y="-12" type="curve" smooth="yes"></point>
      <point x="399" y="-12"></point>
      <point x="498" y="85"></point>
      <point x="498" y="250" type="curve" smooth="yes"></point>
      <point x="498" y="401"></point>
      <point x="430" y="498"></point>
      <point x="302" y="498" type="curve" smooth="yes"></point>
      <point x="249" y="498"></point>
      <point x="197" y="469"></point>
      <point x="154" y="435" type="curve"></point>
      <point x="155" y="518" type="line"></point>
      <point x="155" y="712" type="line"></point>
      <point x="73" y="712" type="line"></point>
      <point x="73" y="-205" type="line"></point>
      <point x="155" y="-205" type="line"></point>
    </contour>
    <contour>
      <point x="155" y="108" type="curve"></point>
      <point x="155" y="363" type="line"></point>
      <point x="203" y="406"></point>
      <point x="244" y="429"></point>
      <point x="285" y="429" type="curve" smooth="yes"></point>
      <point x="377" y="429"></point>
      <point x="413" y="357"></point>
      <point x="413" y="250" type="curve" smooth="yes"></point>
      <point x="413" y="130"></point>
      <point x="354" y="57"></point>
      <point x="274" y="57" type="curve" smooth="yes"></point>
      <point x="242" y="57"></point>
      <point x="199" y="71"></point>
    </contour>
  </outline>
</glyph>
<glyph name="ydieresis" format="1">
  <advance width="522"></advance>
  <unicode hex="00FF"></unicode>
  <outline>
    <contour>
      <point x="70" y="-134" type="curve"></point>
      <point x="54" y="-199" type="line"></point>
      <point x="70" y="-205"></point>
      <point x="89" y="-209"></point>
      <point x="111" y="-209" type="curve" smooth="yes"></point>
      <point x="209" y="-209"></point>
      <point x="259" y="-136"></point>
      <point x="293" y="-40" type="curve" smooth="yes"></point>
      <point x="476" y="486" type="line"></point>
      <point x="396" y="486" type="line"></point>
      <point x="309" y="217" type="line" smooth="yes"></point>
      <point x="296" y="174"></point>
      <point x="282" y="124"></point>
      <point x="268" y="80" type="curve"></point>
      <point x="264" y="80" type="line"></point>
      <point x="249" y="125"></point>
      <point x="232" y="175"></point>
      <point x="217" y="217" type="curve" smooth="yes"></point>
      <point x="118" y="486" type="line"></point>
      <point x="33" y="486" type="line"></point>
      <point x="228" y="-1" type="line"></point>
      <point x="217" y="-37" type="line" smooth="yes"></point>
      <point x="197" y="-97"></point>
      <point x="162" y="-141"></point>
      <point x="107" y="-141" type="curve" smooth="yes"></point>
      <point x="95" y="-141"></point>
      <point x="80" y="-137"></point>
    </contour>
    <contour>
      <point x="178" y="588" type="curve" smooth="yes"></point>
      <point x="206" y="588"></point>
      <point x="227" y="609"></point>
      <point x="227" y="637" type="curve" smooth="yes"></point>
      <point x="227" y="665"></point>
      <point x="206" y="686"></point>
      <point x="178" y="686" type="curve" smooth="yes"></point>
      <point x="150" y="686"></point>
      <point x="129" y="665"></point>
      <point x="129" y="637" type="curve" smooth="yes"></point>
      <point x="129" y="609"></point>
      <point x="150" y="588"></point>
    </contour>
    <contour>
      <point x="350" y="588" type="curve" smooth="yes"></point>
      <point x="379" y="588"></point>
      <point x="399" y="609"></point>
      <point x="399" y="637" type="curve" smooth="yes"></point>
      <point x="399" y="665"></point>
      <point x="379" y="686"></point>
      <point x="350" y="686" type="curve" smooth="yes"></point>
      <point x="322" y="686"></point>
      <point x="302" y="665"></point>
      <point x="302" y="637" type="curve" smooth="yes"></point>
      <point x="302" y="609"></point>
      <point x="322" y="588"></point>
    </contour>
  </outline>
</glyph>
<glyph name="Aogonek" format="1">
  <advance width="572"></advance>
  <unicode hex="0104"></unicode>
  <outline>
    <contour>
      <point x="182" y="267" type="line"></point>
      <point x="213" y="367" type="line" smooth="yes"></point>
      <point x="237" y="440"></point>
      <point x="258" y="512"></point>
      <point x="278" y="588" type="curve"></point>
      <point x="282" y="588" type="line"></point>
      <point x="303" y="512"></point>
      <point x="324" y="440"></point>
      <point x="348" y="367" type="curve" smooth="yes"></point>
      <point x="379" y="267" type="line"></point>
    </contour>
    <contour>
      <point x="559" y="-139" type="line"></point>
      <point x="547" y="-148"></point>
      <point x="534" y="-153"></point>
      <point x="517" y="-153" type="curve" smooth="yes"></point>
      <point x="493" y="-153"></point>
      <point x="471" y="-138"></point>
      <point x="471" y="-107" type="curve" smooth="yes"></point>
      <point x="471" y="-65"></point>
      <point x="504" y="-19"></point>
      <point x="551" y="0" type="curve"></point>
      <point x="329" y="656" type="line"></point>
      <point x="235" y="656" type="line"></point>
      <point x="13" y="0" type="line"></point>
      <point x="98" y="0" type="line"></point>
      <point x="161" y="200" type="line"></point>
      <point x="400" y="200" type="line"></point>
      <point x="462" y="0" type="line"></point>
      <point x="481" y="0" type="line"></point>
      <point x="447" y="-23"></point>
      <point x="406" y="-71"></point>
      <point x="406" y="-125" type="curve" smooth="yes"></point>
      <point x="406" y="-182"></point>
      <point x="449" y="-212"></point>
      <point x="502" y="-212" type="curve" smooth="yes"></point>
      <point x="528" y="-212"></point>
      <point x="562" y="-199"></point>
      <point x="582" y="-184" type="curve"></point>
    </contour>
  </outline>
</glyph>
<glyph name="aogonek" format="1">
  <advance width="497"></advance>
  <unicode hex="0105"></unicode>
  <outline>
    <contour>
      <point x="134" y="132" type="curve" smooth="yes"></point>
      <point x="134" y="194"></point>
      <point x="189" y="234"></point>
      <point x="352" y="254" type="curve"></point>
      <point x="352" y="119" type="line"></point>
      <point x="305" y="77"></point>
      <point x="266" y="54"></point>
      <point x="219" y="54" type="curve" smooth="yes"></point>
      <point x="171" y="54"></point>
      <point x="134" y="77"></point>
    </contour>
    <contour>
      <point x="53" y="126" type="curve" smooth="yes"></point>
      <point x="53" y="39"></point>
      <point x="114" y="-12"></point>
      <point x="196" y="-12" type="curve" smooth="yes"></point>
      <point x="256" y="-12"></point>
      <point x="310" y="20"></point>
      <point x="357" y="58" type="curve"></point>
      <point x="359" y="58" type="line"></point>
      <point x="367" y="4" type="line"></point>
      <point x="328" y="-21"></point>
      <point x="287" y="-67"></point>
      <point x="287" y="-121" type="curve" smooth="yes"></point>
      <point x="287" y="-177"></point>
      <point x="326" y="-206"></point>
      <point x="377" y="-206" type="curve" smooth="yes"></point>
      <point x="402" y="-206"></point>
      <point x="436" y="-194"></point>
      <point x="455" y="-179" type="curve"></point>
      <point x="434" y="-138" type="line"></point>
      <point x="422" y="-146"></point>
      <point x="410" y="-151"></point>
      <point x="394" y="-151" type="curve" smooth="yes"></point>
      <point x="370" y="-151"></point>
      <point x="347" y="-136"></point>
      <point x="347" y="-105" type="curve" smooth="yes"></point>
      <point x="347" y="-66"></point>
      <point x="379" y="-22"></point>
      <point x="434" y="0" type="curve"></point>
      <point x="434" y="298" type="line" smooth="yes"></point>
      <point x="434" y="419"></point>
      <point x="384" y="498"></point>
      <point x="265" y="498" type="curve" smooth="yes"></point>
      <point x="187" y="498"></point>
      <point x="119" y="464"></point>
      <point x="74" y="435" type="curve"></point>
      <point x="107" y="378" type="line"></point>
      <point x="145" y="404"></point>
      <point x="195" y="430"></point>
      <point x="252" y="430" type="curve" smooth="yes"></point>
      <point x="331" y="430"></point>
      <point x="352" y="370"></point>
      <point x="352" y="308" type="curve"></point>
      <point x="145" y="285"></point>
      <point x="53" y="232"></point>
    </contour>
  </outline>
</glyph>
<glyph name="Ccircumflex" format="1">
  <advance width="597"></advance>
  <unicode hex="0108"></unicode>
  <outline>
    <contour>
      <point x="56" y="328" type="curve" smooth="yes"></point>
      <point x="56" y="114"></point>
      <point x="178" y="-12"></point>
      <point x="343" y="-12" type="curve" smooth="yes"></point>
      <point x="427" y="-12"></point>
      <point x="491" y="23"></point>
      <point x="543" y="83" type="curve"></point>
      <point x="496" y="134" type="line"></point>
      <point x="454" y="87"></point>
      <point x="408" y="61"></point>
      <point x="345" y="61" type="curve" smooth="yes"></point>
      <point x="221" y="61"></point>
      <point x="142" y="165"></point>
      <point x="142" y="330" type="curve" smooth="yes"></point>
      <point x="142" y="493"></point>
      <point x="224" y="595"></point>
      <point x="349" y="595" type="curve" smooth="yes"></point>
      <point x="404" y="595"></point>
      <point x="446" y="571"></point>
      <point x="480" y="534" type="curve"></point>
      <point x="527" y="587" type="line"></point>
      <point x="489" y="630"></point>
      <point x="427" y="668"></point>
      <point x="348" y="668" type="curve" smooth="yes"></point>
      <point x="180" y="668"></point>
      <point x="56" y="539"></point>
    </contour>
    <contour>
      <point x="265" y="706" type="line"></point>
      <point x="332" y="774" type="line"></point>
      <point x="336" y="774" type="line"></point>
      <point x="403" y="706" type="line"></point>
      <point x="470" y="706" type="line"></point>
      <point x="374" y="818" type="line"></point>
      <point x="295" y="818" type="line"></point>
      <point x="199" y="706" type="line"></point>
    </contour>
  </outline>
</glyph>
<glyph name="cdotaccent" format="1">
  <advance width="497"></advance>
  <unicode hex="010B"></unicode>
  <outline>
    <contour>
      <point x="56" y="242" type="curve" smooth="yes"></point>
      <point x="56" y="81"></point>
      <point x="155" y="-12"></point>
      <point x="284" y="-12" type="curve" smooth="yes"></point>
      <point x="342" y="-12"></point>
      <point x="398" y="12"></point>
      <point x="442" y="51" type="curve"></point>
      <point x="405" y="105" type="line"></point>
      <point x="376" y="79"></point>
      <point x="337" y="56"></point>
      <point x="291" y="56" type="curve" smooth="yes"></point>
      <point x="202" y="56"></point>
      <point x="141" y="131"></point>
      <point x="141" y="242" type="curve" smooth="yes"></point>
      <point x="141" y="354"></point>
      <point x="205" y="430"></point>
      <point x="293" y="430" type="curve" smooth="yes"></point>
      <point x="332" y="430"></point>
      <point x="362" y="412"></point>
      <point x="391" y="387" type="curve"></point>
      <point x="432" y="440" type="line"></point>
      <point x="399" y="471"></point>
      <point x="354" y="498"></point>
      <point x="290" y="498" type="curve" smooth="yes"></point>
      <point x="165" y="498"></point>
      <point x="56" y="405"></point>
    </contour>
    <contour>
      <point x="289" y="586" type="curve" smooth="yes"></point>
      <point x="320" y="586"></point>
      <point x="343" y="608"></point>
      <point x="343" y="640" type="curve" smooth="yes"></point>
      <point x="343" y="671"></point>
      <point x="320" y="694"></point>
      <point x="289" y="694" type="curve" smooth="yes"></point>
      <point x="257" y="694"></point>
      <point x="234" y="671"></point>
      <point x="234" y="640" type="curve" smooth="yes"></point>
      <point x="234" y="608"></point>
      <point x="257" y="586"></point>
    </contour>
  </outline>
</glyph>
<glyph name="ccaron" format="1">
  <advance width="497"></advance>
  <unicode hex="010D"></unicode>
  <outline>
    <contour>
      <point x="56" y="242" type="curve" smooth="yes"></point>
      <point x="56" y="81"></point>
      <point x="155" y="-12"></point>
      <point x="284" y="-12" type="curve" smooth="yes"></point>
      <point x="342" y="-12"></point>
      <point x="398" y="12"></point>
      <point x="442" y="51" type="curve"></point>
      <point x="405" y="105" type="line"></point>
      <point x="376" y="79"></point>
      <point x="337" y="56"></point>
      <point x="291" y="56" type="curve" smooth="yes"></point>
      <point x="202" y="56"></point>
      <point x="141" y="131"></point>
      <point x="141" y="242" type="curve" smooth="yes"></point>
      <point x="141" y="354"></point>
      <point x="205" y="430"></point>
      <point x="293" y="430" type="curve" smooth="yes"></point>
      <point x="332" y="430"></point>
      <point x="362" y="412"></point>
      <point x="391" y="387" type="curve"></point>
      <point x="432" y="440" type="line"></point>
      <point x="399" y="471"></point>
      <point x="354" y="498"></point>
      <point x="290" y="498" type="curve" smooth="yes"></point>
      <point x="165" y="498"></point>
      <point x="56" y="405"></point>
    </contour>
    <contour>
      <point x="255" y="573" type="line"></point>
      <point x="322" y="573" type="line"></point>
      <point x="417" y="714" type="line"></point>
      <point x="358" y="714" type="line"></point>
      <point x="291" y="622" type="line"></point>
      <point x="287" y="622" type="line"></point>
      <point x="220" y="714" type="line"></point>
      <point x="160" y="714" type="line"></point>
    </contour>
  </outline>
</glyph>
<glyph name="Dcaron" format="1">
  <advance width="622"></advance>
  <unicode hex="010E"></unicode>
  <outline>
    <contour>
      <point x="76" y="0" type="line"></point>
      <point x="244" y="0" type="line" smooth="yes"></point>
      <point x="442" y="0"></point>
      <point x="550" y="122"></point>
      <point x="550" y="331" type="curve" smooth="yes"></point>
      <point x="550" y="539"></point>
      <point x="442" y="656"></point>
      <point x="240" y="656" type="curve" smooth="yes"></point>
      <point x="76" y="656" type="line"></point>
    </contour>
    <contour>
      <point x="159" y="68" type="line"></point>
      <point x="159" y="588" type="line"></point>
      <point x="234" y="588" type="line" smooth="yes"></point>
      <point x="387" y="588"></point>
      <point x="464" y="496"></point>
      <point x="464" y="331" type="curve" smooth="yes"></point>
      <point x="464" y="165"></point>
      <point x="387" y="68"></point>
      <point x="234" y="68" type="curve" smooth="yes"></point>
    </contour>
    <contour>
      <point x="363" y="818" type="line"></point>
      <point x="296" y="750" type="line"></point>
      <point x="292" y="750" type="line"></point>
      <point x="225" y="818" type="line"></point>
      <point x="158" y="818" type="line"></point>
      <point x="254" y="706" type="line"></point>
      <point x="334" y="706" type="line"></point>
      <point x="430" y="818" type="line"></point>
    </contour>
  </outline>
</glyph>
